<svg version="1.1" id="Layer_1" xmlns="http://www.w3.org/2000/svg" xmlns:xlink="http://www.w3.org/1999/xlink" x="0px" y="0px"
	 width="100%" viewBox="0 0 2048 2048" enable-background="new 0 0 2048 2048" xml:space="preserve">
<path fill="#FFFFFF" opacity="1.000000" stroke="none" 
	d="
M896.000000,2049.000000 
	C597.333313,2049.000000 299.166656,2049.000000 1.000000,2049.000000 
	C1.000000,1366.333374 1.000000,683.666687 1.000000,1.000000 
	C683.666687,1.000000 1366.333374,1.000000 2049.000000,1.000000 
	C2049.000000,683.666687 2049.000000,1366.333374 2049.000000,2049.000000 
	C1664.833374,2049.000000 1280.666626,2049.000000 896.000000,2049.000000 
M823.997131,701.986084 
	C823.997131,701.986084 823.975159,701.920410 823.361511,701.852295 
	C822.905579,702.223755 822.449646,702.595276 821.987366,702.988953 
	C821.987366,702.988953 821.964294,702.988708 821.341492,703.190308 
	C820.383118,704.107544 819.424744,705.024719 817.954407,705.871033 
	C817.604004,706.208557 817.253540,706.546021 816.325684,707.110840 
	C815.568359,707.783264 814.811035,708.455688 813.449890,709.252197 
	C812.602600,710.130005 811.755371,711.007751 810.301636,712.149902 
	C809.172791,713.409180 808.043945,714.668396 806.963623,715.997314 
	C806.963623,715.997314 806.959412,715.912476 806.451111,715.822937 
	C806.305542,715.914734 806.160034,716.006470 805.448853,716.226074 
	C804.948059,716.793701 804.447266,717.361328 803.405823,718.151245 
	C802.916931,718.738953 802.428040,719.326599 801.322266,720.180298 
	C792.926147,729.410400 783.848694,738.115967 776.262268,747.969482 
	C753.823853,777.113403 741.053406,810.046936 738.680481,847.007202 
	C736.957764,873.840515 738.908264,900.284119 745.943909,926.178101 
	C756.544006,965.191528 778.935608,996.491516 810.893616,1020.816040 
	C821.806458,1029.122192 833.990112,1035.758789 846.059143,1043.693848 
	C869.754944,1056.691895 894.674561,1066.933716 920.383179,1075.008667 
	C958.883179,1087.101196 997.665283,1098.293091 1036.280029,1110.023926 
	C1052.155029,1114.846802 1067.906738,1120.075195 1084.241699,1125.586060 
	C1085.149414,1125.757568 1086.057251,1125.929077 1087.019897,1126.037231 
	C1087.019897,1126.037231 1086.944946,1126.074219 1087.284546,1126.679443 
	C1088.172974,1126.825928 1089.061523,1126.972290 1090.000366,1127.098389 
	C1090.000366,1127.098389 1089.949707,1127.079346 1090.218872,1127.746826 
	C1091.119019,1127.893311 1092.019043,1128.039795 1092.989380,1128.123413 
	C1092.989380,1128.123413 1092.925171,1128.054443 1092.860474,1128.703247 
	C1093.265381,1128.835083 1093.670166,1128.966919 1094.281006,1129.228760 
	C1094.281006,1129.228760 1094.461304,1129.065063 1094.878174,1129.661255 
	C1095.573975,1129.800415 1096.269775,1129.939697 1096.995117,1130.000000 
	C1096.995117,1130.000000 1096.953979,1130.074707 1097.300659,1130.680176 
	C1111.142578,1137.011597 1125.034790,1143.186523 1137.046387,1152.872559 
	C1148.536865,1162.138306 1154.760986,1174.065430 1156.134033,1189.525757 
	C1155.744385,1195.265747 1155.354858,1201.005859 1154.431030,1207.248535 
	C1150.973999,1213.428467 1148.105347,1220.041504 1143.939819,1225.699707 
	C1134.689575,1238.265137 1121.180298,1245.097534 1106.560303,1251.116943 
	C1105.976196,1251.427368 1105.392212,1251.737793 1104.320312,1252.155151 
	C1104.193970,1252.419434 1104.067627,1252.683594 1104.000122,1252.996826 
	C1104.000122,1252.996826 1103.960083,1252.931519 1103.200928,1252.729980 
	C1101.294922,1253.463257 1099.388916,1254.196533 1096.720825,1254.768921 
	C1081.702881,1258.748535 1066.594849,1262.226562 1050.661621,1262.615234 
	C1050.110229,1262.765869 1049.558716,1262.916626 1048.122437,1263.062988 
	C1044.433594,1263.282227 1040.744629,1263.501587 1036.353027,1263.279907 
	C1027.657593,1262.891602 1018.928528,1262.851440 1010.276367,1262.015625 
	C1001.899902,1261.206177 993.554443,1259.831177 985.280823,1258.255737 
	C969.778015,1255.303833 955.866028,1248.236206 941.662720,1240.379517 
	C928.229309,1231.292847 916.627808,1220.323730 906.586853,1207.540527 
	C900.150269,1199.346069 892.893738,1191.795532 885.713806,1183.351807 
	C881.620728,1179.859985 877.248108,1176.642334 873.495972,1172.816040 
	C866.860229,1166.049194 858.840881,1161.883423 849.542664,1158.435059 
	C832.718323,1152.189575 815.459167,1151.055908 797.654907,1152.813110 
	C777.717651,1154.781006 763.968994,1165.298462 755.002441,1182.274658 
	C743.952209,1203.195557 744.781555,1225.044434 752.083008,1247.763306 
	C757.060791,1258.506104 762.038574,1269.249023 767.028564,1280.719116 
	C768.069702,1282.490234 769.110901,1284.261475 770.177429,1286.725342 
	C770.833130,1287.864502 771.455139,1289.024902 772.150269,1290.139404 
	C776.249695,1296.713135 779.584473,1303.967896 784.648560,1309.690918 
	C793.649170,1319.862671 803.288879,1329.567261 813.435486,1338.597412 
	C822.555298,1346.713867 832.168762,1354.552246 842.544922,1360.914429 
	C857.600891,1370.145996 873.377319,1378.260620 889.175354,1386.196777 
	C896.025940,1389.638062 903.695740,1391.448608 911.465027,1394.572021 
	C918.775940,1396.589355 926.129944,1398.463501 933.390076,1400.649292 
	C960.777649,1408.895386 989.066223,1409.836182 1017.305664,1410.872437 
	C1027.570801,1411.249023 1037.894043,1410.656128 1048.166382,1410.074341 
	C1064.285889,1409.161377 1080.530273,1409.463379 1096.324585,1405.111816 
	C1115.165283,1399.921021 1134.322144,1395.728882 1152.857910,1389.632202 
	C1165.689941,1385.411621 1177.703003,1378.700439 1190.761475,1372.906982 
	C1224.677734,1354.876709 1254.017700,1331.339111 1277.196655,1300.529541 
	C1290.286865,1283.129761 1300.292969,1264.099365 1306.429321,1242.379883 
	C1306.923096,1240.572388 1307.416748,1238.764771 1308.138672,1236.211548 
	C1308.434326,1234.147461 1308.729980,1232.083252 1309.143555,1229.218140 
	C1312.715820,1214.946045 1314.765015,1200.431152 1314.807861,1185.744629 
	C1314.879028,1161.351685 1311.834961,1137.324829 1304.478271,1113.986328 
	C1299.609985,1098.541382 1293.226074,1083.790405 1282.990967,1070.273071 
	C1282.320801,1069.520874 1281.650513,1068.768677 1280.838623,1067.346558 
	C1270.917603,1053.661255 1259.588501,1041.289062 1246.413452,1030.665894 
	C1219.782959,1009.193054 1189.777222,993.639648 1157.498169,983.073608 
	C1118.157349,970.195862 1078.296997,958.901550 1038.635254,947.009705 
	C1031.173828,944.772522 1023.589600,942.945007 1016.007202,940.999939 
	C1016.007202,940.999939 1016.050781,940.922180 1015.701294,940.285889 
	C1011.807190,939.203979 1007.913025,938.122009 1003.382690,936.662781 
	C1002.762512,936.425537 1002.151245,936.160706 1001.520813,935.954956 
	C978.774536,928.528687 955.989014,921.215454 934.818054,909.763062 
	C921.267517,902.432922 909.501221,893.224854 902.027283,878.706238 
	C901.235107,875.751892 900.442932,872.797485 899.722473,869.179077 
	C899.589233,868.759460 899.455994,868.339844 899.445557,867.003174 
	C899.004272,857.305298 898.534668,847.604797 902.732666,837.910217 
	C911.309265,821.426331 924.690125,810.208496 941.530884,802.965820 
	C949.085266,799.716980 956.872009,797.008240 964.613220,794.218506 
	C964.613220,794.218506 964.786621,794.197632 965.662231,794.216187 
	C971.061584,793.040833 976.460999,791.865417 982.685669,790.828735 
	C991.105042,789.813232 999.524414,788.797729 1008.499084,787.932983 
	C1008.689270,787.907532 1008.879395,787.882141 1009.864136,788.009216 
	C1011.198242,787.911377 1012.532349,787.813477 1014.726807,787.852234 
	C1017.831726,787.620911 1020.936707,787.389587 1024.770264,787.534485 
	C1035.531372,788.373047 1046.292603,789.211670 1057.371582,790.188232 
	C1057.371582,790.188232 1057.707764,790.103760 1058.291870,790.586731 
	C1059.526978,790.718872 1060.761963,790.851074 1062.738403,791.258301 
	C1068.824829,792.867188 1074.911377,794.476074 1081.713745,796.306458 
	C1083.860107,797.120056 1086.085083,797.772888 1088.138550,798.776550 
	C1095.104614,802.181274 1102.009888,805.710144 1109.282104,809.760315 
	C1118.177612,817.186096 1127.072998,824.611877 1136.261963,832.637329 
	C1140.901367,838.218811 1145.298340,844.025757 1150.233521,849.332153 
	C1158.976807,858.733276 1168.046997,867.830261 1177.296753,877.648132 
	C1180.918457,879.970154 1184.375000,882.616455 1188.189819,884.559448 
	C1206.882812,894.080688 1227.038940,896.583069 1247.636841,895.837708 
	C1256.540039,895.515564 1265.408569,893.822998 1273.328125,889.135437 
	C1286.911621,881.095215 1295.877441,869.496033 1300.074585,854.267822 
	C1304.539673,838.067932 1304.684326,821.942993 1299.044312,805.132385 
	C1298.811523,803.676392 1298.877197,802.087952 1298.299072,800.785156 
	C1293.410522,789.766724 1288.860840,778.561584 1283.280518,767.898682 
	C1279.259155,760.214661 1273.817749,753.273865 1268.719360,745.390442 
	C1256.646851,728.556396 1241.756714,714.434937 1225.688843,701.573181 
	C1219.285400,696.447510 1212.003540,692.419373 1204.747559,687.323486 
	C1196.017456,682.276794 1187.703247,676.229370 1178.469971,672.393921 
	C1159.832153,664.651917 1140.853882,657.632202 1121.693115,651.289795 
	C1112.859009,648.365479 1103.265503,647.735291 1093.152832,645.969971 
	C1078.036499,644.281799 1062.956543,641.975891 1047.793457,641.084900 
	C1033.554565,640.248230 1019.181885,640.184692 1004.951416,641.089905 
	C987.089233,642.226135 969.180237,643.889099 951.528198,646.773987 
	C923.501892,651.354126 896.567871,659.994873 871.040771,672.566895 
	C862.431702,676.806824 854.273560,681.962158 845.841064,686.846313 
	C845.841064,686.846313 845.968689,686.946289 845.414856,687.048157 
	C845.250977,687.355408 845.087036,687.662659 844.984985,687.932190 
	C844.984985,687.932190 844.930237,687.884827 844.273071,687.816040 
	C843.515015,688.241943 842.757019,688.667908 841.490784,689.119629 
	C841.293091,689.379700 841.095398,689.639771 840.250610,690.095886 
	C838.188477,691.447510 836.126343,692.799072 833.507996,694.198547 
	C832.982788,694.702759 832.457581,695.206970 831.463989,695.882629 
	C831.463989,695.882629 831.073486,696.192871 830.498901,696.258728 
	C829.964050,696.788879 829.429260,697.319031 828.275513,698.025879 
	C827.165222,698.999329 826.054932,699.972778 824.982605,701.004456 
	C824.982605,701.004456 824.969055,700.936584 824.414185,701.032837 
	C824.252869,701.344482 824.091614,701.656128 823.997131,701.986084 
z"/>
<path fill="#FE4C9C" opacity="1.000000" stroke="none" 
	d="
M899.322693,867.920227 
	C899.455994,868.339844 899.589233,868.759460 899.296265,869.682495 
	C897.230591,874.554810 898.753052,878.031494 901.977478,881.424072 
	C902.925720,884.815247 904.085754,887.772339 904.692139,890.838928 
	C909.394104,914.617737 920.496643,935.249146 935.518188,953.971375 
	C939.016541,958.331604 942.606873,962.618042 945.883179,967.117615 
	C947.622375,969.911133 949.406372,972.748047 951.699341,975.085632 
	C954.838257,978.285583 954.947205,981.196716 951.505981,983.926636 
	C948.430725,986.366211 944.597534,988.023193 942.019470,990.861633 
	C940.000244,993.084900 938.280762,994.383728 935.363770,994.004883 
	C931.811218,993.543457 930.263184,995.130981 929.881592,998.684570 
	C929.709778,1000.284241 928.580261,1002.016907 927.408569,1003.227905 
	C924.283142,1006.458008 921.777161,1010.574890 916.662292,1011.276611 
	C915.857788,1011.386963 915.013367,1012.424072 914.497314,1013.230896 
	C909.298401,1021.357910 900.177795,1022.215027 892.212402,1024.814087 
	C887.758606,1026.267212 885.066467,1028.971558 886.238831,1033.698853 
	C886.393677,1034.323120 885.437988,1035.222900 884.696960,1035.845093 
	C880.139343,1030.841919 875.917114,1025.956909 871.617004,1021.141479 
	C855.885071,1003.524231 844.469910,983.247070 834.814758,961.849548 
	C828.518372,947.895813 823.790161,933.461792 820.642334,918.486572 
	C820.000549,915.433411 818.758423,912.603699 814.803467,912.970154 
	C809.818909,913.431824 804.821960,913.852356 799.873779,914.583862 
	C795.996094,915.157166 792.042908,915.783020 788.379700,917.099060 
	C783.973511,918.681946 778.260376,919.934204 775.954102,923.284973 
	C772.438477,928.392578 768.534912,926.215942 765.048096,925.678711 
	C762.993835,925.362183 760.998169,922.341675 759.705322,920.114075 
	C758.596863,918.204163 758.373779,915.715881 758.021851,913.442749 
	C756.647888,904.569031 753.759766,902.077942 744.499512,901.988342 
	C744.333008,901.986755 744.166504,901.984741 743.832275,901.609497 
	C738.710632,863.705383 739.078979,826.673279 754.391968,790.995728 
	C756.077209,790.670410 757.395081,790.449524 758.640137,790.018494 
	C762.998657,788.509766 766.075684,788.754333 766.221863,794.557983 
	C766.249634,795.659973 767.790405,797.361938 768.947388,797.694946 
	C777.047119,800.026367 784.964600,800.192688 791.907837,794.260193 
	C794.452209,797.374207 796.741272,798.911377 800.760559,796.411743 
	C802.724670,795.190247 806.663635,795.117126 808.610657,796.312622 
	C812.814331,798.893921 816.037659,798.939575 820.014282,793.513916 
	C821.176514,797.202332 822.938232,799.732910 822.430908,801.669067 
	C818.471497,816.780640 816.204285,832.089966 816.027832,847.698181 
	C815.957275,853.939209 817.110657,855.041565 823.225037,854.982727 
	C829.641418,854.920959 835.523987,856.505493 841.222107,859.869263 
	C840.433472,861.613037 839.851990,862.898865 839.342834,864.024597 
	C843.438171,865.592590 847.176453,867.374573 851.108459,868.444092 
	C856.506042,869.912231 862.085205,871.875671 867.521790,871.693726 
	C872.445984,871.528931 879.844727,872.923767 880.308105,864.074280 
	C880.337158,863.519592 881.459045,862.588745 882.098145,862.566467 
	C888.208679,862.352905 890.078857,858.261536 891.259949,853.201843 
	C891.464172,852.327393 893.068665,851.513428 894.164734,851.252502 
	C894.570435,851.155884 895.789307,852.668579 895.922729,853.554871 
	C896.438232,856.980896 896.483215,860.482544 897.086792,863.888123 
	C897.340515,865.319336 898.548523,866.581299 899.322693,867.920227 
z"/>
<path fill="#D16ED0" opacity="1.000000" stroke="none" 
	d="
M1307.910522,1236.957275 
	C1307.416748,1238.764771 1306.923096,1240.572388 1305.924072,1242.827759 
	C1304.360718,1245.097534 1303.081421,1246.828247 1302.286011,1248.758423 
	C1299.958252,1254.406738 1297.895508,1260.163818 1295.599121,1265.825562 
	C1289.414917,1281.073242 1277.904663,1292.857544 1268.998535,1306.334106 
	C1265.739746,1311.265015 1261.684692,1315.777710 1257.454834,1319.933472 
	C1250.991089,1326.283691 1244.282227,1332.429199 1237.273193,1338.167847 
	C1228.075684,1345.698120 1218.485107,1352.748413 1209.047974,1359.616821 
	C1209.369873,1357.981812 1209.327515,1356.374390 1210.109985,1355.550171 
	C1213.647095,1351.824585 1217.920166,1349.231934 1219.718384,1343.513062 
	C1221.403687,1338.153198 1229.625854,1335.540894 1227.142578,1327.784668 
	C1227.008545,1327.366089 1227.559814,1326.462280 1228.032593,1326.158325 
	C1230.972412,1324.267944 1229.705078,1322.426392 1228.249268,1320.336304 
	C1227.332031,1319.019409 1226.839844,1317.406494 1226.005981,1315.599121 
	C1227.803711,1315.599121 1229.169189,1315.599121 1231.754517,1315.599121 
	C1230.317871,1313.701538 1229.672119,1312.162354 1228.516602,1311.449585 
	C1224.899902,1309.218750 1221.233154,1306.948486 1217.315308,1305.360962 
	C1213.570923,1303.843750 1213.809082,1302.309937 1215.255127,1298.958252 
	C1218.635376,1291.123291 1221.296997,1282.978149 1224.397095,1274.558350 
	C1220.855103,1273.530396 1217.902954,1272.960693 1215.190186,1271.821045 
	C1210.859009,1270.001221 1206.134888,1268.479736 1202.590210,1265.589478 
	C1198.355835,1262.137207 1194.998169,1257.718750 1189.365967,1256.148315 
	C1187.362183,1255.589600 1185.201904,1254.598633 1183.770142,1253.153687 
	C1177.389160,1246.714478 1169.259766,1242.715820 1160.877319,1241.579468 
	C1153.889404,1240.631958 1149.248291,1239.827637 1149.014648,1231.566162 
	C1151.026733,1223.047852 1152.995972,1214.896851 1154.965332,1206.745850 
	C1155.354858,1201.005859 1155.744385,1195.265747 1156.386353,1188.725708 
	C1155.718994,1181.572510 1154.799438,1175.219360 1154.253906,1168.942627 
	C1160.012329,1171.928345 1164.521973,1170.791016 1169.037109,1166.778809 
	C1171.313477,1164.755981 1174.810791,1163.851196 1177.914795,1163.080688 
	C1181.708740,1162.139038 1185.655762,1161.733032 1189.561157,1161.342407 
	C1194.478638,1160.850342 1200.104736,1158.937134 1204.206421,1160.615601 
	C1212.118774,1163.853027 1218.822998,1159.739746 1226.034424,1159.288330 
	C1230.102539,1159.033691 1234.082764,1157.378052 1238.985962,1156.128296 
	C1238.771851,1154.552612 1238.302490,1151.858032 1238.065063,1149.143188 
	C1237.811035,1146.235229 1237.775513,1143.308350 1237.641113,1140.312500 
	C1242.886108,1139.276733 1247.857788,1138.204102 1247.162354,1131.154297 
	C1247.078735,1130.306885 1248.646729,1128.501099 1249.460815,1128.494263 
	C1253.702515,1128.457886 1258.758911,1127.498291 1262.001953,1129.429199 
	C1266.853027,1132.317383 1270.548218,1131.709595 1274.957031,1129.559937 
	C1282.463257,1125.900024 1290.204590,1129.169678 1294.209961,1136.257812 
	C1295.696655,1138.888672 1299.843750,1140.015991 1302.777588,1141.828979 
	C1303.849976,1139.283813 1305.264282,1136.818604 1305.884033,1134.167603 
	C1306.357666,1132.141602 1306.161621,1129.803589 1305.687744,1127.736328 
	C1302.421997,1113.489868 1297.511719,1099.824951 1290.561279,1086.944946 
	C1287.836792,1081.896362 1284.845947,1076.991455 1282.228516,1071.881836 
	C1282.725464,1071.446777 1282.970093,1071.151001 1283.214600,1070.855225 
	C1293.226074,1083.790405 1299.609985,1098.541382 1304.478271,1113.986328 
	C1311.834961,1137.324829 1314.879028,1161.351685 1314.807861,1185.744629 
	C1314.765015,1200.431152 1312.715820,1214.946045 1308.791016,1229.819824 
	C1308.262573,1232.599976 1308.086548,1234.778687 1307.910522,1236.957275 
z"/>
<path fill="#DABAF5" opacity="1.000000" stroke="none" 
	d="
M910.993408,1394.000000 
	C903.695740,1391.448608 896.025940,1389.638062 889.175354,1386.196777 
	C873.377319,1378.260620 857.600891,1370.145996 842.544922,1360.914429 
	C832.168762,1354.552246 822.555298,1346.713867 813.435486,1338.597412 
	C803.288879,1329.567261 793.649170,1319.862671 784.648560,1309.690918 
	C779.584473,1303.967896 776.249695,1296.713135 772.150269,1290.139404 
	C771.455139,1289.024902 770.833130,1287.864502 770.512329,1286.380127 
	C771.548523,1286.031128 772.249939,1286.027222 773.252258,1286.172974 
	C776.021729,1288.904907 778.490295,1291.487305 781.114014,1294.368408 
	C783.032837,1296.149536 784.789307,1297.640503 786.561096,1299.112915 
	C798.903442,1309.371338 811.741089,1319.009399 826.433716,1325.588135 
	C836.343933,1330.025146 846.795349,1333.253418 857.254333,1337.299316 
	C878.139038,1343.333740 899.177551,1346.710327 920.547546,1347.895752 
	C924.954224,1348.140381 929.417664,1347.363403 934.338623,1347.046997 
	C955.952515,1347.817749 976.904968,1346.090088 997.395386,1340.970581 
	C1013.739197,1336.887451 1029.807373,1331.701416 1046.264648,1327.223633 
	C1048.238281,1329.066162 1049.692383,1331.565552 1051.700439,1332.144409 
	C1057.105347,1333.702881 1060.221802,1337.308960 1062.982056,1341.818115 
	C1066.507812,1347.578003 1070.373779,1353.132080 1074.172852,1358.720703 
	C1075.606567,1360.829834 1077.180542,1362.652222 1079.296143,1359.121338 
	C1079.558228,1358.683716 1082.081421,1358.798340 1082.313843,1359.269775 
	C1084.600708,1363.910278 1086.666626,1368.662354 1088.700562,1373.423340 
	C1089.430664,1375.132568 1089.903564,1376.951538 1090.493774,1378.720459 
	C1088.789185,1379.155518 1087.084595,1379.590576 1085.033081,1380.114136 
	C1086.085571,1381.878174 1087.737915,1383.480835 1087.943359,1385.251465 
	C1088.296509,1388.292969 1088.973755,1392.924561 1087.348999,1394.266602 
	C1082.194580,1398.524292 1076.025146,1401.547119 1070.293579,1405.120239 
	C1069.691650,1405.495483 1069.391846,1406.355225 1068.540039,1407.046875 
	C1060.551758,1407.732422 1052.975586,1408.882568 1045.399048,1408.884888 
	C1028.115723,1408.890503 1010.826172,1408.511353 993.551514,1407.925781 
	C985.630127,1407.657349 977.603516,1407.207642 969.858887,1405.664551 
	C951.574402,1402.021362 933.436218,1397.647095 915.217712,1393.665283 
	C913.897034,1393.376709 912.405518,1393.870117 910.993408,1394.000000 
z"/>
<path fill="#EDCCD4" opacity="1.000000" stroke="none" 
	d="
M857.004639,1337.022583 
	C846.795349,1333.253418 836.343933,1330.025146 826.433716,1325.588135 
	C811.741089,1319.009399 798.903442,1309.371338 786.561096,1299.112915 
	C784.789307,1297.640503 783.032837,1296.149536 781.528381,1294.351196 
	C784.854980,1294.136597 789.108765,1295.579590 790.779907,1294.101807 
	C797.224365,1288.403198 803.164795,1282.038574 808.677551,1275.410278 
	C813.903015,1269.127075 818.358032,1262.203125 823.376221,1255.250244 
	C826.230896,1257.819458 829.323792,1260.603027 832.575256,1263.529297 
	C834.316284,1261.168091 835.225708,1258.910889 836.894470,1257.864136 
	C841.827881,1254.769287 845.134766,1249.967896 850.605835,1247.080566 
	C856.610901,1243.911499 861.079712,1237.589844 865.780823,1232.256348 
	C870.971741,1226.367310 875.833862,1220.164429 880.497925,1213.846313 
	C882.450012,1211.202026 884.400696,1208.025024 884.816101,1204.886719 
	C885.730652,1197.978516 885.668335,1190.941162 886.004761,1183.956421 
	C892.893738,1191.795532 900.150269,1199.346069 906.586853,1207.540527 
	C916.627808,1220.323730 928.229309,1231.292847 941.627136,1240.839355 
	C941.606934,1241.747437 941.436340,1242.358032 941.665039,1242.619873 
	C947.017578,1248.747681 949.198669,1255.016235 945.669739,1263.318115 
	C943.562378,1268.275635 940.135986,1270.932739 936.560730,1274.361694 
	C929.311890,1281.313599 923.196045,1289.441406 916.550964,1297.030151 
	C912.218872,1301.977417 907.777283,1306.828979 902.795898,1312.379517 
	C898.641602,1310.577026 893.111694,1308.425781 887.809448,1305.812744 
	C881.521423,1302.713989 879.485352,1303.396729 876.902954,1309.688477 
	C873.815735,1317.210205 873.111145,1326.033325 865.401733,1331.108154 
	C862.543518,1332.989746 859.800293,1335.046021 857.004639,1337.022583 
z"/>
<path fill="#FE5BA1" opacity="1.000000" stroke="none" 
	d="
M899.384155,867.461670 
	C898.548523,866.581299 897.340515,865.319336 897.086792,863.888123 
	C896.483215,860.482544 896.438232,856.980896 895.922729,853.554871 
	C895.789307,852.668579 894.570435,851.155884 894.164734,851.252502 
	C893.068665,851.513428 891.464172,852.327393 891.259949,853.201843 
	C890.078857,858.261536 888.208679,862.352905 882.098145,862.566467 
	C881.459045,862.588745 880.337158,863.519592 880.308105,864.074280 
	C879.844727,872.923767 872.445984,871.528931 867.521790,871.693726 
	C862.085205,871.875671 856.506042,869.912231 851.108459,868.444092 
	C847.176453,867.374573 843.438171,865.592590 839.342834,864.024597 
	C839.851990,862.898865 840.433472,861.613037 841.222107,859.869263 
	C835.523987,856.505493 829.641418,854.920959 823.225037,854.982727 
	C817.110657,855.041565 815.957275,853.939209 816.027832,847.698181 
	C816.204285,832.089966 818.471497,816.780640 822.430908,801.669067 
	C822.938232,799.732910 821.176514,797.202332 820.014282,793.513916 
	C816.037659,798.939575 812.814331,798.893921 808.610657,796.312622 
	C806.663635,795.117126 802.724670,795.190247 800.760559,796.411743 
	C796.741272,798.911377 794.452209,797.374207 791.907837,794.260193 
	C784.964600,800.192688 777.047119,800.026367 768.947388,797.694946 
	C767.790405,797.361938 766.249634,795.659973 766.221863,794.557983 
	C766.075684,788.754333 762.998657,788.509766 758.640137,790.018494 
	C757.395081,790.449524 756.077209,790.670410 754.535278,790.666443 
	C756.164490,786.138184 757.702515,781.728271 760.008606,777.765198 
	C765.227173,768.796936 770.158447,759.538513 776.440002,751.343506 
	C783.956909,741.537170 792.790588,732.743713 800.950134,723.420654 
	C801.672363,722.595398 801.627686,721.098999 801.939209,719.914307 
	C802.428040,719.326599 802.916931,718.738953 803.977539,718.208008 
	C805.398926,719.582642 806.248657,720.900391 807.223633,722.412476 
	C803.222961,724.888184 800.282227,728.251892 802.955688,731.993713 
	C810.124573,742.027771 820.144226,745.773682 832.284668,742.705994 
	C835.789734,741.820312 839.989746,742.722473 842.574036,738.911682 
	C842.957397,738.346436 844.892761,738.833740 846.110168,738.834106 
	C846.101135,740.348328 846.530884,742.036194 846.011658,743.348572 
	C842.739746,751.619141 839.190125,759.779480 835.883423,768.036743 
	C834.855225,770.604431 832.226196,773.275024 835.364380,776.127502 
	C837.548462,778.112671 839.752441,780.097412 842.110657,781.864685 
	C845.747803,784.590271 849.540833,787.106873 853.235596,789.756958 
	C855.261536,791.209961 857.221558,792.754944 859.997742,794.852661 
	C860.622559,797.303467 858.722412,802.865784 865.920593,802.802368 
	C865.633484,801.279358 865.290283,800.342468 865.326965,799.420654 
	C865.368713,798.369019 865.642639,796.482483 866.000977,796.437561 
	C867.364807,796.266663 869.625305,796.202820 870.083618,796.972473 
	C873.662231,802.982056 879.205261,803.263184 885.258728,803.142090 
	C887.344238,803.100403 890.336365,804.013794 891.397522,805.543274 
	C894.434998,809.921265 896.555969,814.922607 899.323547,819.506042 
	C900.566833,821.564880 902.491638,823.212158 904.080200,825.445801 
	C903.411926,829.991577 902.770630,834.137817 902.129333,838.284058 
	C898.534668,847.604797 899.004272,857.305298 899.384155,867.461670 
z"/>
<path fill="#FDDECE" opacity="1.000000" stroke="none" 
	d="
M1269.009766,746.001465 
	C1273.817749,753.273865 1279.259155,760.214661 1283.280518,767.898682 
	C1288.860840,778.561584 1293.410522,789.766724 1298.299072,800.785156 
	C1298.877197,802.087952 1298.811523,803.676392 1298.837524,805.824951 
	C1297.261108,806.894165 1295.096191,808.015564 1294.644165,807.532959 
	C1289.849365,802.412903 1287.215942,807.415466 1283.937134,809.543701 
	C1281.596069,811.063416 1279.210815,812.520813 1276.793823,813.917114 
	C1273.117554,816.040894 1269.156860,817.764099 1265.773926,820.273376 
	C1263.244995,822.149048 1261.367798,824.939941 1259.328369,827.427979 
	C1257.410400,829.767700 1255.666748,829.459106 1254.150146,827.193359 
	C1251.667725,823.484680 1249.466309,819.582336 1246.880005,815.951477 
	C1245.791382,814.423096 1243.850708,812.213257 1242.607788,812.398376 
	C1240.932007,812.647705 1239.264771,814.705078 1238.107544,816.348267 
	C1235.039429,820.704468 1233.355103,826.050110 1228.268799,828.911072 
	C1224.466675,831.049622 1220.597778,833.233154 1217.286011,836.022766 
	C1215.023438,837.928528 1214.010010,841.267883 1211.843262,843.346130 
	C1205.815430,849.127808 1199.453613,854.559875 1193.275635,860.187256 
	C1191.348145,861.942993 1189.623901,863.919739 1187.741699,865.727783 
	C1183.980957,869.340271 1183.129883,875.717102 1176.980469,877.054565 
	C1168.046997,867.830261 1158.976807,858.733276 1150.233521,849.332153 
	C1145.298340,844.025757 1140.901367,838.218811 1136.484009,832.288391 
	C1142.028931,830.128235 1146.663940,827.622009 1148.378296,821.622192 
	C1148.704346,820.481506 1149.909546,819.389343 1150.981567,818.696533 
	C1159.666748,813.084167 1165.727539,805.032654 1172.141235,797.139160 
	C1177.512695,790.528320 1184.111206,784.905823 1190.248291,778.929626 
	C1193.068481,776.183289 1196.582031,774.006897 1198.882324,770.905457 
	C1201.595825,767.246948 1203.877197,767.785889 1206.663574,770.223816 
	C1210.028809,773.168335 1213.190552,776.371399 1216.746094,779.058044 
	C1217.915039,779.941345 1220.502197,780.323181 1221.638184,779.626099 
	C1225.632202,777.175232 1229.351074,774.248779 1233.035156,771.327148 
	C1237.310791,767.936401 1241.516357,764.447021 1245.598633,760.827087 
	C1247.521729,759.121643 1248.745728,756.416260 1250.877563,755.198425 
	C1256.754883,751.840881 1262.943970,749.029114 1269.009766,746.001465 
z"/>
<path fill="#FE68A9" opacity="1.000000" stroke="none" 
	d="
M904.107178,825.046265 
	C902.491638,823.212158 900.566833,821.564880 899.323547,819.506042 
	C896.555969,814.922607 894.434998,809.921265 891.397522,805.543274 
	C890.336365,804.013794 887.344238,803.100403 885.258728,803.142090 
	C879.205261,803.263184 873.662231,802.982056 870.083618,796.972473 
	C869.625305,796.202820 867.364807,796.266663 866.000977,796.437561 
	C865.642639,796.482483 865.368713,798.369019 865.326965,799.420654 
	C865.290283,800.342468 865.633484,801.279358 865.920593,802.802368 
	C858.722412,802.865784 860.622559,797.303467 859.997742,794.852661 
	C857.221558,792.754944 855.261536,791.209961 853.235596,789.756958 
	C849.540833,787.106873 845.747803,784.590271 842.110657,781.864685 
	C839.752441,780.097412 837.548462,778.112671 835.364380,776.127502 
	C832.226196,773.275024 834.855225,770.604431 835.883423,768.036743 
	C839.190125,759.779480 842.739746,751.619141 846.011658,743.348572 
	C846.530884,742.036194 846.101135,740.348328 846.110168,738.834106 
	C844.892761,738.833740 842.957397,738.346436 842.574036,738.911682 
	C839.989746,742.722473 835.789734,741.820312 832.284668,742.705994 
	C820.144226,745.773682 810.124573,742.027771 802.955688,731.993713 
	C800.282227,728.251892 803.222961,724.888184 807.223633,722.412476 
	C806.248657,720.900391 805.398926,719.582642 804.247803,718.096924 
	C804.447266,717.361328 804.948059,716.793701 805.843140,716.304016 
	C806.478149,716.225464 806.718750,716.068970 806.959412,715.912476 
	C806.959412,715.912476 806.963623,715.997314 807.305176,715.975586 
	C809.786133,715.441284 812.450195,715.349304 810.908081,711.885559 
	C811.755371,711.007751 812.602600,710.130005 813.967407,709.419189 
	C816.668457,709.917786 818.646118,710.065186 816.903076,706.883484 
	C817.253540,706.546021 817.604004,706.208557 818.625244,705.905212 
	C820.185486,704.955811 821.074890,703.972229 821.964233,702.988647 
	C821.964294,702.988708 821.987366,702.988953 822.290161,702.953308 
	C823.053650,702.585266 823.514404,702.252808 823.975159,701.920410 
	C823.975159,701.920410 823.997131,701.986084 824.193237,701.868469 
	C824.582581,701.479431 824.775818,701.208008 824.969055,700.936584 
	C824.969055,700.936584 824.982605,701.004456 825.340881,700.981628 
	C827.584229,700.764832 830.370361,701.496704 828.894470,697.849182 
	C829.429260,697.319031 829.964050,696.788879 830.921936,696.346191 
	C831.540771,696.192871 831.736511,695.951965 831.932312,695.711121 
	C832.457581,695.206970 832.982788,694.702759 834.020752,694.408081 
	C837.031982,693.088013 839.530457,691.558350 842.382629,690.003052 
	C843.467651,689.279907 844.198975,688.582397 844.930298,687.884888 
	C844.930237,687.884827 844.984985,687.932190 845.182800,687.842102 
	C845.576660,687.483459 845.772644,687.214844 845.968689,686.946289 
	C845.968689,686.946289 845.841064,686.846313 846.250000,686.857788 
	C848.893555,685.925903 851.186035,685.098206 853.351562,684.016479 
	C858.609009,681.390442 863.807373,678.646301 869.018677,676.412720 
	C869.007812,679.368774 868.389343,682.076294 869.161072,684.301697 
	C870.172546,687.218506 871.671631,690.628723 874.039612,692.280151 
	C879.660095,696.200195 880.144775,696.932800 875.987915,702.476624 
	C875.294800,703.401062 874.501648,704.264465 873.911682,705.250061 
	C867.805786,715.450317 868.200317,715.603699 879.197937,720.081543 
	C887.218262,723.347290 895.109802,727.320496 902.301514,732.114380 
	C908.773071,736.428101 913.982483,742.595703 920.235718,747.297913 
	C922.394897,748.921570 926.042358,748.499695 928.969849,749.183838 
	C933.216553,750.176208 937.686340,750.774292 941.560181,752.601929 
	C944.082703,753.792175 944.947327,756.781067 942.736267,759.843140 
	C939.977783,763.663147 937.548584,767.732910 935.167969,771.806274 
	C934.454346,773.027283 934.378418,774.620850 933.895081,776.360718 
	C933.245972,777.516479 932.833679,778.471252 932.160217,779.176697 
	C919.494629,792.443604 911.013550,808.261841 904.107178,825.046265 
z"/>
<path fill="#D6B4D6" opacity="1.000000" stroke="none" 
	d="
M857.254333,1337.299316 
	C859.800293,1335.046021 862.543518,1332.989746 865.401733,1331.108154 
	C873.111145,1326.033325 873.815735,1317.210205 876.902954,1309.688477 
	C879.485352,1303.396729 881.521423,1302.713989 887.809448,1305.812744 
	C893.111694,1308.425781 898.641602,1310.577026 902.795898,1312.379517 
	C907.777283,1306.828979 912.218872,1301.977417 916.550964,1297.030151 
	C923.196045,1289.441406 929.311890,1281.313599 936.560730,1274.361694 
	C940.135986,1270.932739 943.562378,1268.275635 945.669739,1263.318115 
	C949.198669,1255.016235 947.017578,1248.747681 941.665039,1242.619873 
	C941.436340,1242.358032 941.606934,1241.747437 941.842041,1241.097900 
	C955.866028,1248.236206 969.778015,1255.303833 985.280823,1258.255737 
	C993.554443,1259.831177 1001.899902,1261.206177 1010.276367,1262.015625 
	C1018.928528,1262.851440 1027.657593,1262.891602 1036.512695,1263.792236 
	C1036.031494,1264.529785 1035.390503,1264.755127 1034.307373,1264.981201 
	C1028.345337,1264.981934 1022.825317,1264.981934 1017.305359,1264.981934 
	C1016.923950,1265.337158 1016.542603,1265.692261 1016.161194,1266.047485 
	C1021.300049,1270.239746 1020.453430,1274.910889 1017.723206,1279.062988 
	C1015.055420,1283.120239 1011.585083,1286.664062 1008.345520,1290.325562 
	C1006.485168,1292.428223 1004.159424,1294.140747 1002.431824,1296.334839 
	C997.265381,1302.896362 992.260925,1309.586426 987.251892,1316.270386 
	C984.117615,1320.452759 981.089478,1324.714966 977.548584,1328.956543 
	C972.484985,1328.674561 967.888550,1328.215088 963.286926,1328.155518 
	C961.262634,1328.129150 958.855896,1328.361206 957.261414,1329.429321 
	C949.900146,1334.360596 942.748840,1339.606934 935.569092,1344.804810 
	C934.837524,1345.334473 934.418823,1346.296265 933.854980,1347.057373 
	C929.417664,1347.363403 924.954224,1348.140381 920.547546,1347.895752 
	C899.177551,1346.710327 878.139038,1343.333740 857.254333,1337.299316 
z"/>
<path fill="#FDDECE" opacity="1.000000" stroke="none" 
	d="
M885.859253,1183.654053 
	C885.668335,1190.941162 885.730652,1197.978516 884.816101,1204.886719 
	C884.400696,1208.025024 882.450012,1211.202026 880.497925,1213.846313 
	C875.833862,1220.164429 870.971741,1226.367310 865.780823,1232.256348 
	C861.079712,1237.589844 856.610901,1243.911499 850.605835,1247.080566 
	C845.134766,1249.967896 841.827881,1254.769287 836.894470,1257.864136 
	C835.225708,1258.910889 834.316284,1261.168091 832.575256,1263.529297 
	C829.323792,1260.603027 826.230896,1257.819458 823.376221,1255.250244 
	C818.358032,1262.203125 813.903015,1269.127075 808.677551,1275.410278 
	C803.164795,1282.038574 797.224365,1288.403198 790.779907,1294.101807 
	C789.108765,1295.579590 784.854980,1294.136597 781.373169,1294.052490 
	C778.490295,1291.487305 776.021729,1288.904907 773.135742,1285.857666 
	C770.817566,1283.592529 768.916992,1281.792114 767.016357,1279.991821 
	C762.038574,1269.249023 757.060791,1258.506104 752.402710,1247.422119 
	C754.367371,1247.579224 756.686829,1249.034912 757.551147,1248.425781 
	C764.987061,1243.185669 774.660889,1241.108765 779.612549,1232.239868 
	C781.723083,1228.459595 785.038818,1225.263916 788.171631,1222.172363 
	C790.404297,1219.968994 793.245850,1218.382812 795.815674,1216.521240 
	C795.898376,1215.832153 795.981079,1215.143066 796.063721,1214.453979 
	C796.972961,1215.823730 797.657532,1217.466919 798.872253,1218.464844 
	C799.651978,1219.105469 801.886230,1219.351685 802.319763,1218.826538 
	C807.213623,1212.897583 812.696289,1207.814697 819.991211,1204.973389 
	C820.588806,1204.740723 821.100525,1204.255859 821.612183,1203.839111 
	C828.107361,1198.549072 834.595276,1193.250000 840.904724,1188.100342 
	C840.988525,1186.747803 840.411560,1184.345215 841.318665,1183.455078 
	C845.152039,1179.693604 845.714294,1173.085571 851.859619,1171.343018 
	C852.386841,1171.193604 852.579224,1169.960938 852.983398,1169.264160 
	C855.576965,1164.792114 852.175964,1162.069946 850.002563,1158.987671 
	C858.840881,1161.883423 866.860229,1166.049194 873.495972,1172.816040 
	C877.248108,1176.642334 881.620728,1179.859985 885.859253,1183.654053 
z"/>
<path fill="#FBC1C6" opacity="1.000000" stroke="none" 
	d="
M1268.864502,745.695923 
	C1262.943970,749.029114 1256.754883,751.840881 1250.877563,755.198425 
	C1248.745728,756.416260 1247.521729,759.121643 1245.598633,760.827087 
	C1241.516357,764.447021 1237.310791,767.936401 1233.035156,771.327148 
	C1229.351074,774.248779 1225.632202,777.175232 1221.638184,779.626099 
	C1220.502197,780.323181 1217.915039,779.941345 1216.746094,779.058044 
	C1213.190552,776.371399 1210.028809,773.168335 1206.663574,770.223816 
	C1203.877197,767.785889 1201.595825,767.246948 1198.882324,770.905457 
	C1196.582031,774.006897 1193.068481,776.183289 1190.248291,778.929626 
	C1184.111206,784.905823 1177.512695,790.528320 1172.141235,797.139160 
	C1165.727539,805.032654 1159.666748,813.084167 1150.981567,818.696533 
	C1149.909546,819.389343 1148.704346,820.481506 1148.378296,821.622192 
	C1146.663940,827.622009 1142.028931,830.128235 1136.337280,831.988525 
	C1127.072998,824.611877 1118.177612,817.186096 1109.156738,809.107239 
	C1112.549805,803.539673 1116.040894,798.605469 1119.599487,793.720276 
	C1121.042725,791.738953 1122.243164,789.191772 1124.217773,788.048584 
	C1138.531982,779.761047 1148.562988,767.070251 1158.531494,754.487122 
	C1165.077515,746.224243 1169.462036,744.579895 1178.559204,749.813293 
	C1181.001709,751.218445 1183.384399,752.729004 1185.779297,754.215637 
	C1190.163940,756.937134 1192.187378,755.816040 1196.040039,752.252869 
	C1204.888672,744.069031 1211.665161,733.502686 1223.092773,728.200012 
	C1223.846680,727.850159 1224.260132,726.766785 1225.231812,725.505371 
	C1219.569702,722.889648 1214.491943,719.979675 1209.050171,718.156067 
	C1199.828247,715.065735 1190.376587,712.661072 1180.763672,709.697388 
	C1178.014893,708.941345 1175.523926,708.455994 1173.031006,707.573486 
	C1174.254883,700.623474 1175.260986,693.851929 1183.250977,691.916260 
	C1187.964478,690.774353 1192.747681,689.909973 1197.516724,689.011658 
	C1200.032715,688.537659 1202.585449,688.258667 1205.121582,687.891663 
	C1212.003540,692.419373 1219.285400,696.447510 1225.688843,701.573181 
	C1241.756714,714.434937 1256.646851,728.556396 1268.864502,745.695923 
z"/>
<path fill="#FEECD0" opacity="1.000000" stroke="none" 
	d="
M1177.138672,877.351318 
	C1183.129883,875.717102 1183.980957,869.340271 1187.741699,865.727783 
	C1189.623901,863.919739 1191.348145,861.942993 1193.275635,860.187256 
	C1199.453613,854.559875 1205.815430,849.127808 1211.843262,843.346130 
	C1214.010010,841.267883 1215.023438,837.928528 1217.286011,836.022766 
	C1220.597778,833.233154 1224.466675,831.049622 1228.268799,828.911072 
	C1233.355103,826.050110 1235.039429,820.704468 1238.107544,816.348267 
	C1239.264771,814.705078 1240.932007,812.647705 1242.607788,812.398376 
	C1243.850708,812.213257 1245.791382,814.423096 1246.880005,815.951477 
	C1249.466309,819.582336 1251.667725,823.484680 1254.150146,827.193359 
	C1255.666748,829.459106 1257.410400,829.767700 1259.328369,827.427979 
	C1261.367798,824.939941 1263.244995,822.149048 1265.773926,820.273376 
	C1269.156860,817.764099 1273.117554,816.040894 1276.793823,813.917114 
	C1279.210815,812.520813 1281.596069,811.063416 1283.937134,809.543701 
	C1287.215942,807.415466 1289.849365,802.412903 1294.644165,807.532959 
	C1295.096191,808.015564 1297.261108,806.894165 1298.846191,806.232178 
	C1304.684326,821.942993 1304.539673,838.067932 1300.074585,854.267822 
	C1295.877441,869.496033 1286.911621,881.095215 1273.328125,889.135437 
	C1265.408569,893.822998 1256.540039,895.515564 1247.636841,895.837708 
	C1227.038940,896.583069 1206.882812,894.080688 1188.189819,884.559448 
	C1184.375000,882.616455 1180.918457,879.970154 1177.138672,877.351318 
z"/>
<path fill="#BF3D9B" opacity="1.000000" stroke="none" 
	d="
M1094.461304,1129.065063 
	C1094.461304,1129.065063 1094.281006,1129.228760 1094.044922,1128.929688 
	C1093.514160,1128.438599 1093.219727,1128.246582 1092.925171,1128.054443 
	C1092.925171,1128.054443 1092.989380,1128.123413 1092.794434,1127.845459 
	C1091.716309,1127.404907 1090.833008,1127.242188 1089.949707,1127.079346 
	C1089.949707,1127.079346 1090.000366,1127.098389 1089.793579,1126.817993 
	C1088.706177,1126.383179 1087.825562,1126.228760 1086.944946,1126.074219 
	C1086.944946,1126.074219 1087.019897,1126.037231 1086.782837,1125.773804 
	C1085.602051,1125.380005 1084.658325,1125.249634 1083.714600,1125.119263 
	C1067.906738,1120.075195 1052.155029,1114.846802 1036.280029,1110.023926 
	C997.665283,1098.293091 958.883179,1087.101196 920.383179,1075.008667 
	C894.674561,1066.933716 869.754944,1056.691895 846.183228,1043.341675 
	C846.545227,1042.934692 846.783020,1042.879761 847.394348,1042.884644 
	C851.500916,1044.667969 855.180603,1046.520386 858.976318,1048.092896 
	C874.375366,1054.472534 889.679565,1061.114624 905.281982,1066.957031 
	C914.257874,1070.318237 923.737915,1072.333252 933.350708,1075.007812 
	C941.547913,1078.238525 949.294983,1081.669678 957.254944,1084.502808 
	C962.513489,1086.374512 968.105530,1087.288696 973.499146,1088.806152 
	C982.776733,1091.416504 991.983459,1093.598511 1001.602600,1090.123047 
	C1006.228210,1088.451660 1013.246765,1079.967163 1014.095520,1075.288940 
	C1015.750366,1066.167114 1017.908325,1057.136597 1019.865784,1048.069946 
	C1019.970520,1047.584839 1020.088379,1047.087036 1020.299927,1046.642822 
	C1025.934692,1034.809570 1029.950317,1033.539795 1040.738525,1041.298584 
	C1056.987061,1052.984375 1072.940186,1065.080566 1089.117676,1077.213013 
	C1089.401733,1077.690796 1089.651978,1077.863770 1090.242920,1078.078857 
	C1091.347412,1078.807373 1092.176025,1079.399658 1093.162720,1080.286621 
	C1095.900269,1082.896118 1098.561890,1085.126831 1101.041870,1087.543701 
	C1105.870728,1092.249878 1110.915161,1096.788574 1115.287476,1101.895752 
	C1120.822144,1108.360352 1125.775879,1115.322388 1130.599365,1122.042725 
	C1125.803223,1119.818848 1123.930420,1122.664185 1122.572510,1126.061646 
	C1122.045654,1127.380127 1122.076172,1128.952759 1122.005859,1130.416992 
	C1121.700806,1136.764282 1119.703613,1137.831299 1113.947998,1135.565552 
	C1108.419312,1133.389526 1102.629150,1131.878174 1096.953979,1130.074707 
	C1096.953979,1130.074707 1096.995117,1130.000000 1096.768433,1129.748779 
	C1095.848267,1129.353516 1095.154785,1129.209351 1094.461304,1129.065063 
z"/>
<path fill="#FC95C4" opacity="1.000000" stroke="none" 
	d="
M869.029541,675.949707 
	C863.807373,678.646301 858.609009,681.390442 853.351562,684.016479 
	C851.186035,685.098206 848.893555,685.925903 846.284058,686.784180 
	C854.273560,681.962158 862.431702,676.806824 871.040771,672.566895 
	C896.567871,659.994873 923.501892,651.354126 951.528198,646.773987 
	C969.180237,643.889099 987.089233,642.226135 1004.951416,641.089905 
	C1019.181885,640.184692 1033.554565,640.248230 1047.793457,641.084900 
	C1062.956543,641.975891 1078.036499,644.281799 1093.831299,646.285767 
	C1102.203613,648.427551 1109.942749,650.089417 1117.559204,652.194763 
	C1119.467529,652.722168 1120.982056,654.674988 1122.677612,655.972778 
	C1120.946045,656.983215 1119.302490,658.208435 1117.465332,658.961731 
	C1112.816650,660.867981 1106.185547,660.027161 1105.896606,667.725159 
	C1105.875122,668.295532 1105.394531,669.109009 1104.899292,669.361328 
	C1099.479492,672.121765 1100.375244,676.674316 1101.922241,680.981445 
	C1103.742432,686.049561 1104.265137,690.689575 1101.407715,695.643494 
	C1100.009521,698.067627 1099.766113,701.157898 1098.551514,703.973755 
	C1090.747314,705.017273 1083.391479,706.033630 1075.606201,707.035156 
	C1073.707275,707.206238 1072.213013,707.278870 1070.772339,707.596130 
	C1059.504395,710.078308 1048.246826,712.607300 1037.015991,714.756348 
	C1036.583008,711.735413 1036.598511,708.871887 1035.553589,706.469482 
	C1033.603760,701.986694 1031.198486,697.676147 1028.690918,693.467896 
	C1024.756836,686.865723 1020.528442,680.439697 1016.522461,673.879456 
	C1013.043762,668.182617 1010.344116,661.788696 1003.971863,658.592590 
	C1001.026367,657.115234 997.689453,656.434021 994.579102,655.261414 
	C993.334595,654.792236 992.222473,653.971619 991.050110,653.310974 
	C992.015442,652.214355 992.827698,650.900085 993.989624,650.083069 
	C995.122437,649.286560 996.612671,648.998413 997.945984,648.487122 
	C997.956848,647.840637 997.967712,647.194153 997.978577,646.547668 
	C994.979736,645.703308 992.019348,644.398621 988.971191,644.143555 
	C985.902588,643.886719 982.729919,644.560669 979.631958,645.022522 
	C967.238831,646.870117 954.682068,648.041809 942.514404,650.874878 
	C926.435242,654.618530 910.511475,659.220093 894.820129,664.365234 
	C885.914551,667.285339 877.606628,672.027893 869.029541,675.949707 
z"/>
<path fill="#A681BD" opacity="1.000000" stroke="none" 
	d="
M934.338684,1347.046997 
	C934.418823,1346.296265 934.837524,1345.334473 935.569092,1344.804810 
	C942.748840,1339.606934 949.900146,1334.360596 957.261414,1329.429321 
	C958.855896,1328.361206 961.262634,1328.129150 963.286926,1328.155518 
	C967.888550,1328.215088 972.484985,1328.674561 977.971008,1328.982422 
	C981.476013,1329.319214 984.137878,1330.109009 986.700806,1329.863892 
	C990.704224,1329.480957 995.686768,1329.625610 998.373535,1327.337769 
	C1003.044739,1323.360229 1006.362610,1317.757935 1010.100891,1312.727661 
	C1016.895813,1303.584106 1023.249390,1294.089111 1030.427734,1285.261841 
	C1035.533325,1278.983398 1036.395264,1272.396484 1034.749512,1264.980469 
	C1035.390503,1264.755127 1036.031494,1264.529785 1036.864136,1264.012695 
	C1040.744629,1263.501587 1044.433594,1263.282227 1048.728027,1263.259033 
	C1049.888306,1263.297119 1050.442993,1263.139038 1050.997559,1262.980957 
	C1066.594849,1262.226562 1081.702881,1258.748535 1097.512085,1254.820435 
	C1100.188843,1254.225098 1102.074463,1253.578247 1103.960083,1252.931396 
	C1103.960083,1252.931519 1104.000122,1252.996826 1104.166016,1252.872314 
	C1104.597290,1252.587158 1104.756104,1252.353882 1104.808105,1252.048096 
	C1105.392212,1251.737793 1105.976196,1251.427368 1106.901855,1251.444580 
	C1107.560913,1252.111816 1107.880493,1252.749023 1108.196045,1252.747070 
	C1114.725098,1252.705933 1115.882568,1254.217163 1114.917969,1260.793579 
	C1113.497681,1270.476685 1109.610474,1279.086426 1104.354370,1287.242432 
	C1103.105469,1289.180420 1102.864014,1291.767822 1102.110596,1294.301758 
	C1102.062134,1294.546997 1102.004272,1295.042480 1101.699219,1295.181641 
	C1088.597290,1303.228394 1075.905151,1311.313477 1062.953247,1318.958496 
	C1057.587891,1322.125732 1051.666504,1324.351196 1045.997925,1327.004883 
	C1029.807373,1331.701416 1013.739197,1336.887451 997.395386,1340.970581 
	C976.904968,1346.090088 955.952515,1347.817749 934.338684,1347.046997 
z"/>
<path fill="#FEECD0" opacity="1.000000" stroke="none" 
	d="
M849.772583,1158.711426 
	C852.175964,1162.069946 855.576965,1164.792114 852.983398,1169.264160 
	C852.579224,1169.960938 852.386841,1171.193604 851.859619,1171.343018 
	C845.714294,1173.085571 845.152039,1179.693604 841.318665,1183.455078 
	C840.411560,1184.345215 840.988525,1186.747803 840.904724,1188.100342 
	C834.595276,1193.250000 828.107361,1198.549072 821.612183,1203.839111 
	C821.100525,1204.255859 820.588806,1204.740723 819.991211,1204.973389 
	C812.696289,1207.814697 807.213623,1212.897583 802.319763,1218.826538 
	C801.886230,1219.351685 799.651978,1219.105469 798.872253,1218.464844 
	C797.657532,1217.466919 796.972961,1215.823730 796.063721,1214.453979 
	C795.981079,1215.143066 795.898376,1215.832153 795.815674,1216.521240 
	C793.245850,1218.382812 790.404297,1219.968994 788.171631,1222.172363 
	C785.038818,1225.263916 781.723083,1228.459595 779.612549,1232.239868 
	C774.660889,1241.108765 764.987061,1243.185669 757.551147,1248.425781 
	C756.686829,1249.034912 754.367371,1247.579224 752.366577,1247.042969 
	C744.781555,1225.044434 743.952209,1203.195557 755.002441,1182.274658 
	C763.968994,1165.298462 777.717651,1154.781006 797.654907,1152.813110 
	C815.459167,1151.055908 832.718323,1152.189575 849.772583,1158.711426 
z"/>
<path fill="#C12E77" opacity="1.000000" stroke="none" 
	d="
M946.154785,966.938477 
	C942.606873,962.618042 939.016541,958.331604 935.518188,953.971375 
	C920.496643,935.249146 909.394104,914.617737 904.692139,890.838928 
	C904.085754,887.772339 902.925720,884.815247 902.029724,881.004578 
	C902.036438,879.920166 902.035522,879.638672 902.034546,879.357178 
	C909.501221,893.224854 921.267517,902.432922 934.818054,909.763062 
	C955.989014,921.215454 978.774536,928.528687 1001.520813,935.954956 
	C1002.151245,936.160706 1002.762512,936.425537 1003.862183,937.162964 
	C1008.244690,938.749512 1012.147766,939.835815 1016.050781,940.922180 
	C1016.050781,940.922180 1016.007202,940.999939 1015.992676,941.301514 
	C1015.990601,942.055298 1016.003052,942.507568 1015.857300,943.271484 
	C1013.921997,944.726929 1011.870117,945.603210 1010.433594,947.078613 
	C1008.386963,949.180847 1005.487000,951.623108 1005.298035,954.099182 
	C1004.984253,958.211121 1005.964233,962.681030 1007.444092,966.606262 
	C1009.385254,971.755127 1009.576904,976.413818 1007.358765,981.474060 
	C1006.343811,983.789368 1005.695251,986.724731 1006.147522,989.141724 
	C1007.805542,998.001465 1010.023315,1006.755615 1011.952332,1015.566528 
	C1012.209106,1016.739258 1012.017517,1018.010193 1012.033630,1019.235596 
	C1010.825378,1019.025085 1009.340759,1019.193787 1008.451477,1018.545654 
	C998.962524,1011.628845 989.220398,1004.997620 980.233826,997.468994 
	C968.549255,987.679932 957.485657,977.149719 946.154785,966.938477 
z"/>
<path fill="#F8ABBE" opacity="1.000000" stroke="none" 
	d="
M1181.021484,709.968201 
	C1190.376587,712.661072 1199.828247,715.065735 1209.050171,718.156067 
	C1214.491943,719.979675 1219.569702,722.889648 1225.231812,725.505371 
	C1224.260132,726.766785 1223.846680,727.850159 1223.092773,728.200012 
	C1211.665161,733.502686 1204.888672,744.069031 1196.040039,752.252869 
	C1192.187378,755.816040 1190.163940,756.937134 1185.779297,754.215637 
	C1183.384399,752.729004 1181.001709,751.218445 1178.559204,749.813293 
	C1169.462036,744.579895 1165.077515,746.224243 1158.531494,754.487122 
	C1148.562988,767.070251 1138.531982,779.761047 1124.217773,788.048584 
	C1122.243164,789.191772 1121.042725,791.738953 1119.599487,793.720276 
	C1116.040894,798.605469 1112.549805,803.539673 1108.984985,808.822876 
	C1102.009888,805.710144 1095.104614,802.181274 1088.138550,798.776550 
	C1086.085083,797.772888 1083.860107,797.120056 1081.305420,795.848022 
	C1080.503662,794.086853 1079.516357,792.625671 1079.814697,791.507507 
	C1081.575317,784.908447 1082.165894,777.763733 1088.010254,772.907837 
	C1089.879883,771.354431 1091.554077,769.528015 1093.132935,767.669495 
	C1098.910522,760.868164 1104.479614,753.885681 1110.378418,747.192871 
	C1115.461914,741.425110 1120.720581,735.783936 1126.278809,730.481995 
	C1127.681641,729.143860 1130.733521,728.477417 1132.666504,728.957336 
	C1137.786987,730.228394 1142.639893,732.563416 1147.749512,733.900208 
	C1149.535522,734.367493 1152.224976,733.745972 1153.692505,732.592285 
	C1157.158325,729.867615 1159.861572,726.155029 1163.381470,723.521362 
	C1168.242188,719.884460 1173.629150,716.958130 1178.652222,713.525024 
	C1179.742920,712.779602 1180.247192,711.176392 1181.021484,709.968201 
z"/>
<path fill="#F8ABBE" opacity="1.000000" stroke="none" 
	d="
M1099.000000,703.946655 
	C1099.766113,701.157898 1100.009521,698.067627 1101.407715,695.643494 
	C1104.265137,690.689575 1103.742432,686.049561 1101.922241,680.981445 
	C1100.375244,676.674316 1099.479492,672.121765 1104.899292,669.361328 
	C1105.394531,669.109009 1105.875122,668.295532 1105.896606,667.725159 
	C1106.185547,660.027161 1112.816650,660.867981 1117.465332,658.961731 
	C1119.302490,658.208435 1120.946045,656.983215 1122.677612,655.972778 
	C1120.982056,654.674988 1119.467529,652.722168 1117.559204,652.194763 
	C1109.942749,650.089417 1102.203613,648.427551 1094.263062,646.333252 
	C1103.265503,647.735291 1112.859009,648.365479 1121.693115,651.289795 
	C1140.853882,657.632202 1159.832153,664.651917 1178.469971,672.393921 
	C1187.703247,676.229370 1196.017456,682.276794 1204.934570,687.607544 
	C1202.585449,688.258667 1200.032715,688.537659 1197.516724,689.011658 
	C1192.747681,689.909973 1187.964478,690.774353 1183.250977,691.916260 
	C1175.260986,693.851929 1174.254883,700.623474 1172.629883,707.541016 
	C1163.145630,706.616638 1154.060547,705.327637 1144.517822,704.030273 
	C1137.028687,703.714600 1129.997314,703.407104 1122.528809,703.076477 
	C1114.394409,703.351074 1106.697144,703.648865 1099.000000,703.946655 
z"/>
<path fill="#FC95C4" opacity="1.000000" stroke="none" 
	d="
M1144.975586,704.038574 
	C1154.060547,705.327637 1163.145630,706.616638 1172.631714,707.938232 
	C1175.523926,708.455994 1178.014893,708.941345 1180.763672,709.697388 
	C1180.247192,711.176392 1179.742920,712.779602 1178.652222,713.525024 
	C1173.629150,716.958130 1168.242188,719.884460 1163.381470,723.521362 
	C1159.861572,726.155029 1157.158325,729.867615 1153.692505,732.592285 
	C1152.224976,733.745972 1149.535522,734.367493 1147.749512,733.900208 
	C1142.639893,732.563416 1137.786987,730.228394 1132.666504,728.957336 
	C1130.733521,728.477417 1127.681641,729.143860 1126.278809,730.481995 
	C1120.720581,735.783936 1115.461914,741.425110 1110.378418,747.192871 
	C1104.479614,753.885681 1098.910522,760.868164 1093.132935,767.669495 
	C1091.554077,769.528015 1089.879883,771.354431 1088.010254,772.907837 
	C1082.165894,777.763733 1081.575317,784.908447 1079.814697,791.507507 
	C1079.516357,792.625671 1080.503662,794.086853 1080.947388,795.737305 
	C1074.911377,794.476074 1068.824829,792.867188 1062.107910,790.853638 
	C1060.220825,790.333862 1058.964233,790.218811 1057.707764,790.103760 
	C1057.707764,790.103760 1057.371582,790.188232 1057.133057,789.769165 
	C1054.777954,786.729187 1050.274414,787.016602 1049.805054,782.045898 
	C1048.938599,772.868896 1053.641479,765.917603 1058.246094,759.162476 
	C1061.425781,754.497742 1066.328979,751.001587 1070.494873,747.017700 
	C1073.334595,744.302002 1075.915039,741.154236 1079.166870,739.063232 
	C1086.339233,734.451172 1091.071289,728.343933 1092.969604,720.011658 
	C1092.992554,719.993591 1093.034668,719.953247 1093.436035,720.026733 
	C1102.719971,721.726929 1111.600830,723.364380 1120.486572,724.973816 
	C1123.328369,725.488586 1125.073120,724.372864 1126.238159,721.623108 
	C1129.241089,714.534851 1134.781006,710.073059 1141.760620,707.108704 
	C1143.036743,706.566772 1143.914062,705.085938 1144.975586,704.038574 
z"/>
<path fill="#FE68A9" opacity="1.000000" stroke="none" 
	d="
M1098.551514,703.973755 
	C1106.697144,703.648865 1114.394409,703.351074 1122.448608,703.445190 
	C1122.300903,704.199158 1121.846558,704.727417 1121.283813,704.897522 
	C1115.492798,706.647095 1109.387817,707.706970 1103.974365,710.246460 
	C1099.639648,712.279968 1094.082520,713.840149 1093.034668,719.953247 
	C1093.034668,719.953247 1092.992554,719.993591 1092.553711,719.985107 
	C1086.211426,719.326050 1080.317139,718.541443 1074.396973,718.140198 
	C1073.243286,718.062012 1071.892212,719.351990 1070.796753,720.219055 
	C1065.526611,724.390198 1060.256104,728.564758 1055.097778,732.872437 
	C1051.381470,735.976074 1047.756714,739.202881 1044.270630,742.561096 
	C1043.121948,743.667664 1042.772095,745.586121 1041.654297,746.744995 
	C1031.973022,756.782288 1028.328247,769.788696 1024.018921,782.450928 
	C1023.541138,783.854919 1024.011230,785.581421 1024.041626,787.158325 
	C1020.936707,787.389587 1017.831726,787.620911 1014.058838,787.564575 
	C1011.950378,787.470154 1010.509888,787.663452 1009.069458,787.856750 
	C1008.879395,787.882141 1008.689270,787.907532 1007.908142,787.622070 
	C1004.840759,787.166016 1002.364258,787.020874 999.925049,786.476074 
	C1002.862183,778.358826 1004.273743,769.547363 1008.973511,763.152344 
	C1018.612122,750.036743 1026.407104,735.454651 1038.360229,724.097229 
	C1040.056396,722.485535 1042.134033,720.661865 1044.283569,720.257446 
	C1050.281128,719.129211 1056.398193,718.570251 1062.489502,718.028320 
	C1066.958130,717.630798 1074.485352,711.737488 1076.035767,707.049927 
	C1083.391479,706.033630 1090.747314,705.017273 1098.551514,703.973755 
z"/>
<path fill="#BF3D9B" opacity="1.000000" stroke="none" 
	d="
M999.887817,786.875732 
	C1002.364258,787.020874 1004.840759,787.166016 1007.630493,787.546631 
	C999.524414,788.797729 991.105042,789.813232 981.968689,790.548645 
	C975.763367,791.578247 970.275024,792.888000 964.786621,794.197632 
	C964.786621,794.197632 964.613220,794.218506 964.109802,794.132874 
	C960.571960,794.261902 957.537598,794.476562 953.791992,794.741516 
	C954.253723,791.578247 954.693237,789.035217 954.987122,786.475525 
	C956.466370,773.590210 960.485596,761.750854 968.821533,751.552673 
	C969.987366,750.126526 970.285095,747.990845 971.268921,745.979126 
	C982.290527,739.914490 992.802368,733.578735 1003.836975,728.345276 
	C1012.584106,724.196838 1021.971985,721.399475 1031.017822,718.367676 
	C1030.343018,722.363037 1027.472290,723.139893 1024.529053,723.991760 
	C1023.023987,724.427429 1021.215210,724.958557 1020.290833,726.068604 
	C1014.503479,733.018433 1009.104065,740.295044 1003.233765,747.171143 
	C996.432739,755.137390 990.564453,763.374207 987.768921,773.809998 
	C984.027893,787.775757 985.619690,789.843811 999.887817,786.875732 
z"/>
<path fill="#FE76B2" opacity="1.000000" stroke="none" 
	d="
M1024.406006,787.346436 
	C1024.011230,785.581421 1023.541138,783.854919 1024.018921,782.450928 
	C1028.328247,769.788696 1031.973022,756.782288 1041.654297,746.744995 
	C1042.772095,745.586121 1043.121948,743.667664 1044.270630,742.561096 
	C1047.756714,739.202881 1051.381470,735.976074 1055.097778,732.872437 
	C1060.256104,728.564758 1065.526611,724.390198 1070.796753,720.219055 
	C1071.892212,719.351990 1073.243286,718.062012 1074.396973,718.140198 
	C1080.317139,718.541443 1086.211426,719.326050 1092.530762,720.003174 
	C1091.071289,728.343933 1086.339233,734.451172 1079.166870,739.063232 
	C1075.915039,741.154236 1073.334595,744.302002 1070.494873,747.017700 
	C1066.328979,751.001587 1061.425781,754.497742 1058.246094,759.162476 
	C1053.641479,765.917603 1048.938599,772.868896 1049.805054,782.045898 
	C1050.274414,787.016602 1054.777954,786.729187 1056.974121,789.700195 
	C1046.292603,789.211670 1035.531372,788.373047 1024.406006,787.346436 
z"/>
<path fill="#C12E77" opacity="1.000000" stroke="none" 
	d="
M970.984680,746.183594 
	C970.285095,747.990845 969.987366,750.126526 968.821533,751.552673 
	C960.485596,761.750854 956.466370,773.590210 954.987122,786.475525 
	C954.693237,789.035217 954.253723,791.578247 953.791992,794.741516 
	C957.537598,794.476562 960.571960,794.261902 964.079834,794.050842 
	C956.872009,797.008240 949.085266,799.716980 941.530884,802.965820 
	C924.690125,810.208496 911.309265,821.426331 902.431030,838.097168 
	C902.770630,834.137817 903.411926,829.991577 904.080200,825.445801 
	C911.013550,808.261841 919.494629,792.443604 932.160217,779.176697 
	C932.833679,778.471252 933.245972,777.516479 934.200928,776.221497 
	C936.057190,774.401917 937.402100,772.925964 938.941956,771.693420 
	C949.600098,763.161743 960.298889,754.680786 970.984680,746.183594 
z"/>
<path fill="#BF3D9B" opacity="1.000000" stroke="none" 
	d="
M1102.159058,1294.056396 
	C1102.864014,1291.767822 1103.105469,1289.180420 1104.354370,1287.242432 
	C1109.610474,1279.086426 1113.497681,1270.476685 1114.917969,1260.793579 
	C1115.882568,1254.217163 1114.725098,1252.705933 1108.196045,1252.747070 
	C1107.880493,1252.749023 1107.560913,1252.111816 1107.233765,1251.430420 
	C1121.180298,1245.097534 1134.689575,1238.265137 1143.939819,1225.699707 
	C1148.105347,1220.041504 1150.973999,1213.428467 1154.698242,1206.997192 
	C1152.995972,1214.896851 1151.026733,1223.047852 1148.746826,1231.806641 
	C1147.331787,1235.174072 1146.354248,1237.992798 1145.103027,1240.684204 
	C1135.188721,1262.007812 1120.327515,1279.366211 1102.159058,1294.056396 
z"/>
<path fill="#EC47A4" opacity="1.000000" stroke="none" 
	d="
M847.020813,1042.824951 
	C846.783020,1042.879761 846.545227,1042.934692 845.950256,1043.073975 
	C833.990112,1035.758789 821.806458,1029.122192 810.893616,1020.816040 
	C778.935608,996.491516 756.544006,965.191528 745.943909,926.178101 
	C738.908264,900.284119 736.957764,873.840515 738.680481,847.007202 
	C741.053406,810.046936 753.823853,777.113403 776.262268,747.969482 
	C783.848694,738.115967 792.926147,729.410400 801.630737,720.047363 
	C801.627686,721.098999 801.672363,722.595398 800.950134,723.420654 
	C792.790588,732.743713 783.956909,741.537170 776.440002,751.343506 
	C770.158447,759.538513 765.227173,768.796936 760.008606,777.765198 
	C757.702515,781.728271 756.164490,786.138184 754.134521,790.674438 
	C739.078979,826.673279 738.710632,863.705383 743.829407,902.048584 
	C744.634705,906.423035 745.322876,909.976990 745.907349,913.548035 
	C748.225647,927.712341 752.779663,941.140442 758.997314,954.050842 
	C766.018372,968.629333 775.060974,981.707520 785.958984,993.747620 
	C799.624695,1008.845398 814.541443,1022.264221 831.877380,1032.977905 
	C836.997986,1036.142334 841.976929,1039.536255 847.020813,1042.824951 
z"/>
<path fill="#BF3D9B" opacity="1.000000" stroke="none" 
	d="
M1016.015503,942.959839 
	C1016.003052,942.507568 1015.990601,942.055298 1016.020081,941.265808 
	C1023.589600,942.945007 1031.173828,944.772522 1038.635254,947.009705 
	C1078.296997,958.901550 1118.157349,970.195862 1157.498169,983.073608 
	C1189.777222,993.639648 1219.782959,1009.193054 1246.413452,1030.665894 
	C1259.588501,1041.289062 1270.917603,1053.661255 1280.908691,1067.684204 
	C1280.978638,1068.021851 1280.968628,1068.031494 1280.602539,1068.019775 
	C1279.007812,1067.065308 1277.538452,1066.318848 1276.587036,1065.150513 
	C1264.320801,1050.088623 1251.270264,1035.852661 1234.801758,1024.665771 
	C1231.869385,1022.576111 1229.236938,1020.579102 1226.388062,1018.964050 
	C1214.584473,1012.272461 1202.903687,1005.324402 1190.808594,999.199768 
	C1181.732788,994.604065 1172.231812,990.741943 1162.666504,987.247681 
	C1152.607666,983.572998 1142.417847,979.684326 1131.944336,977.966370 
	C1126.924805,977.143005 1122.607666,975.340881 1118.062622,973.789551 
	C1111.193237,971.444824 1104.597900,968.253540 1097.666016,966.145081 
	C1079.916138,960.746094 1062.060425,955.691406 1044.215942,950.608398 
	C1034.849609,947.940430 1025.417725,945.501953 1016.015503,942.959839 
z"/>
<path fill="#C12E77" opacity="1.000000" stroke="none" 
	d="
M1097.127319,1130.377441 
	C1102.629150,1131.878174 1108.419312,1133.389526 1113.947998,1135.565552 
	C1119.703613,1137.831299 1121.700806,1136.764282 1122.005859,1130.416992 
	C1122.076172,1128.952759 1122.045654,1127.380127 1122.572510,1126.061646 
	C1123.930420,1122.664185 1125.803223,1119.818848 1130.770020,1122.328369 
	C1132.964600,1124.919189 1134.649048,1127.168823 1136.244263,1129.479980 
	C1144.553345,1141.518066 1149.518311,1155.057983 1153.879883,1168.866211 
	C1154.799438,1175.219360 1155.718994,1181.572510 1156.520752,1188.249756 
	C1154.760986,1174.065430 1148.536865,1162.138306 1137.046387,1152.872559 
	C1125.034790,1143.186523 1111.142578,1137.011597 1097.127319,1130.377441 
z"/>
<path fill="#D6B4D6" opacity="1.000000" stroke="none" 
	d="
M911.229248,1394.286011 
	C912.405518,1393.870117 913.897034,1393.376709 915.217712,1393.665283 
	C933.436218,1397.647095 951.574402,1402.021362 969.858887,1405.664551 
	C977.603516,1407.207642 985.630127,1407.657349 993.551514,1407.925781 
	C1010.826172,1408.511353 1028.115723,1408.890503 1045.399048,1408.884888 
	C1052.975586,1408.882568 1060.551758,1407.732422 1068.981445,1407.053711 
	C1072.952393,1406.656006 1076.114258,1406.531494 1079.180054,1405.923340 
	C1095.638916,1402.658936 1112.121338,1399.486572 1128.489380,1395.809204 
	C1133.816284,1394.612305 1138.822632,1391.988770 1144.349609,1390.020264 
	C1146.152954,1389.353271 1147.582520,1388.683716 1149.007324,1388.007935 
	C1149.002441,1388.001831 1149.014648,1388.016968 1149.403442,1388.014526 
	C1154.941772,1386.315308 1160.225342,1384.938477 1165.210327,1382.848999 
	C1173.224609,1379.489624 1181.041748,1375.659302 1189.077271,1372.257935 
	C1189.502319,1372.692505 1189.792114,1372.897339 1190.081909,1373.102173 
	C1177.703003,1378.700439 1165.689941,1385.411621 1152.857910,1389.632202 
	C1134.322144,1395.728882 1115.165283,1399.921021 1096.324585,1405.111816 
	C1080.530273,1409.463379 1064.285889,1409.161377 1048.166382,1410.074341 
	C1037.894043,1410.656128 1027.570801,1411.249023 1017.305664,1410.872437 
	C989.066223,1409.836182 960.777649,1408.895386 933.390076,1400.649292 
	C926.129944,1398.463501 918.775940,1396.589355 911.229248,1394.286011 
z"/>
<path fill="#A681BD" opacity="1.000000" stroke="none" 
	d="
M1190.421631,1373.004639 
	C1189.792114,1372.897339 1189.502319,1372.692505 1189.395508,1372.115967 
	C1196.073608,1367.831177 1202.568481,1363.918091 1209.063477,1360.005127 
	C1218.485107,1352.748413 1228.075684,1345.698120 1237.273193,1338.167847 
	C1244.282227,1332.429199 1250.991089,1326.283691 1257.454834,1319.933472 
	C1261.684692,1315.777710 1265.739746,1311.265015 1268.998535,1306.334106 
	C1277.904663,1292.857544 1289.414917,1281.073242 1295.599121,1265.825562 
	C1297.895508,1260.163818 1299.958252,1254.406738 1302.286011,1248.758423 
	C1303.081421,1246.828247 1304.360718,1245.097534 1305.749756,1243.134277 
	C1300.292969,1264.099365 1290.286865,1283.129761 1277.196655,1300.529541 
	C1254.017700,1331.339111 1224.677734,1354.876709 1190.421631,1373.004639 
z"/>
<path fill="#C12E77" opacity="1.000000" stroke="none" 
	d="
M965.224426,794.206909 
	C970.275024,792.888000 975.763367,791.578247 981.556030,790.479309 
	C976.460999,791.865417 971.061584,793.040833 965.224426,794.206909 
z"/>
<path fill="#FE5BA1" opacity="1.000000" stroke="none" 
	d="
M902.030884,879.031738 
	C902.035522,879.638672 902.036438,879.920166 901.985046,880.621094 
	C898.753052,878.031494 897.230591,874.554810 899.260376,870.014526 
	C900.442932,872.797485 901.235107,875.751892 902.030884,879.031738 
z"/>
<path fill="#BF3D9B" opacity="1.000000" stroke="none" 
	d="
M1015.876038,940.604004 
	C1012.147766,939.835815 1008.244690,938.749512 1004.180298,937.351685 
	C1007.913025,938.122009 1011.807190,939.203979 1015.876038,940.604004 
z"/>
<path fill="#EDCCD4" opacity="1.000000" stroke="none" 
	d="
M767.022461,1280.355469 
	C768.916992,1281.792114 770.817566,1283.592529 772.834717,1285.708130 
	C772.249939,1286.027222 771.548523,1286.031128 770.499634,1286.033691 
	C769.110901,1284.261475 768.069702,1282.490234 767.022461,1280.355469 
z"/>
<path fill="#EC47A4" opacity="1.000000" stroke="none" 
	d="
M842.028870,690.028687 
	C839.530457,691.558350 837.031982,693.088013 834.298828,694.384155 
	C836.126343,692.799072 838.188477,691.447510 840.841431,690.041687 
	C841.612244,689.982056 841.792175,689.976562 841.986206,689.985535 
	C842.000244,689.999939 842.028870,690.028625 842.028870,690.028687 
z"/>
<path fill="#EC47A4" opacity="1.000000" stroke="none" 
	d="
M810.604858,712.017700 
	C812.450195,715.349304 809.786133,715.441284 807.280945,715.940735 
	C808.043945,714.668396 809.172791,713.409180 810.604858,712.017700 
z"/>
<path fill="#EC47A4" opacity="1.000000" stroke="none" 
	d="
M828.584961,697.937500 
	C830.370361,701.496704 827.584229,700.764832 825.321899,700.952515 
	C826.054932,699.972778 827.165222,698.999329 828.584961,697.937500 
z"/>
<path fill="#A681BD" opacity="1.000000" stroke="none" 
	d="
M1308.024658,1236.584473 
	C1308.086548,1234.778687 1308.262573,1232.599976 1308.732178,1230.220215 
	C1308.729980,1232.083252 1308.434326,1234.147461 1308.024658,1236.584473 
z"/>
<path fill="#EC47A4" opacity="1.000000" stroke="none" 
	d="
M816.614380,706.997192 
	C818.646118,710.065186 816.668457,709.917786 814.269287,709.357178 
	C814.811035,708.455688 815.568359,707.783264 816.614380,706.997192 
z"/>
<path fill="#BF3D9B" opacity="1.000000" stroke="none" 
	d="
M1103.580566,1252.830688 
	C1102.074463,1253.578247 1100.188843,1254.225098 1097.893066,1254.900879 
	C1099.388916,1254.196533 1101.294922,1253.463257 1103.580566,1252.830688 
z"/>
<path fill="#BF3D9B" opacity="1.000000" stroke="none" 
	d="
M1283.102783,1070.564209 
	C1282.970093,1071.151001 1282.725464,1071.446777 1281.974609,1071.635498 
	C1281.301880,1070.362915 1281.135254,1069.197266 1280.968628,1068.031494 
	C1280.968628,1068.031494 1280.978638,1068.021851 1280.979492,1068.019165 
	C1281.650513,1068.768677 1282.320801,1069.520874 1283.102783,1070.564209 
z"/>
<path fill="#EC47A4" opacity="1.000000" stroke="none" 
	d="
M821.652832,703.089478 
	C821.074890,703.972229 820.185486,704.955811 818.881226,705.940674 
	C819.424744,705.024719 820.383118,704.107544 821.652832,703.089478 
z"/>
<path fill="#FE76B2" opacity="1.000000" stroke="none" 
	d="
M1009.466797,787.932983 
	C1010.509888,787.663452 1011.950378,787.470154 1013.628662,787.496216 
	C1012.532349,787.813477 1011.198242,787.911377 1009.466797,787.932983 
z"/>
<path fill="#EC47A4" opacity="1.000000" stroke="none" 
	d="
M844.601685,687.850464 
	C844.198975,688.582397 843.467651,689.279907 842.382629,690.003052 
	C842.028870,690.028625 842.000244,689.999939 842.005127,689.766724 
	C842.009949,689.533447 841.998962,689.093872 841.998962,689.093872 
	C842.757019,688.667908 843.515015,688.241943 844.601685,687.850464 
z"/>
<path fill="#D6B4D6" opacity="1.000000" stroke="none" 
	d="
M1050.829590,1262.798096 
	C1050.442993,1263.139038 1049.888306,1263.297119 1049.170410,1263.261230 
	C1049.558716,1262.916626 1050.110229,1262.765869 1050.829590,1262.798096 
z"/>
<path fill="#FE76B2" opacity="1.000000" stroke="none" 
	d="
M1057.999756,790.345215 
	C1058.964233,790.218811 1060.220825,790.333862 1061.737183,790.716064 
	C1060.761963,790.851074 1059.526978,790.718872 1057.999756,790.345215 
z"/>
<path fill="#C12E77" opacity="1.000000" stroke="none" 
	d="
M1087.114746,1126.376831 
	C1087.825562,1126.228760 1088.706177,1126.383179 1089.768311,1126.828125 
	C1089.061523,1126.972290 1088.172974,1126.825928 1087.114746,1126.376831 
z"/>
<path fill="#C12E77" opacity="1.000000" stroke="none" 
	d="
M1083.978149,1125.352661 
	C1084.658325,1125.249634 1085.602051,1125.380005 1086.755371,1125.805420 
	C1086.057251,1125.929077 1085.149414,1125.757568 1083.978149,1125.352661 
z"/>
<path fill="#C12E77" opacity="1.000000" stroke="none" 
	d="
M1090.084229,1127.413086 
	C1090.833008,1127.242188 1091.716309,1127.404907 1092.759399,1127.876953 
	C1092.019043,1128.039795 1091.119019,1127.893311 1090.084229,1127.413086 
z"/>
<path fill="#EC47A4" opacity="1.000000" stroke="none" 
	d="
M823.668335,701.886353 
	C823.514404,702.252808 823.053650,702.585266 822.293335,702.942200 
	C822.449646,702.595276 822.905579,702.223755 823.668335,701.886353 
z"/>
<path fill="#C12E77" opacity="1.000000" stroke="none" 
	d="
M1094.669678,1129.363159 
	C1095.154785,1129.209351 1095.848267,1129.353516 1096.753662,1129.788330 
	C1096.269775,1129.939697 1095.573975,1129.800415 1094.669678,1129.363159 
z"/>
<path fill="#EC47A4" opacity="1.000000" stroke="none" 
	d="
M824.691650,700.984741 
	C824.775818,701.208008 824.582581,701.479431 824.159790,701.859314 
	C824.091614,701.656128 824.252869,701.344482 824.691650,700.984741 
z"/>
<path fill="#BF3D9B" opacity="1.000000" stroke="none" 
	d="
M1104.564209,1252.101562 
	C1104.756104,1252.353882 1104.597290,1252.587158 1104.136597,1252.847900 
	C1104.067627,1252.683594 1104.193970,1252.419434 1104.564209,1252.101562 
z"/>
<path fill="#C12E77" opacity="1.000000" stroke="none" 
	d="
M1092.892822,1128.378906 
	C1093.219727,1128.246582 1093.514160,1128.438599 1093.941895,1128.864746 
	C1093.670166,1128.966919 1093.265381,1128.835083 1092.892822,1128.378906 
z"/>
<path fill="#EC47A4" opacity="1.000000" stroke="none" 
	d="
M831.698120,695.796875 
	C831.736511,695.951965 831.540771,696.192871 831.209229,696.313293 
	C831.073486,696.192871 831.463989,695.882629 831.698120,695.796875 
z"/>
<path fill="#FE68A9" opacity="1.000000" stroke="none" 
	d="
M841.744873,689.106750 
	C841.998962,689.093872 842.009949,689.533447 841.991089,689.752319 
	C841.792175,689.976562 841.612244,689.982056 841.165039,689.943665 
	C841.095398,689.639771 841.293091,689.379700 841.744873,689.106750 
z"/>
<path fill="#EC47A4" opacity="1.000000" stroke="none" 
	d="
M806.705261,715.867676 
	C806.718750,716.068970 806.478149,716.225464 806.125977,716.240051 
	C806.160034,716.006470 806.305542,715.914734 806.705261,715.867676 
z"/>
<path fill="#EC47A4" opacity="1.000000" stroke="none" 
	d="
M845.691772,686.997192 
	C845.772644,687.214844 845.576660,687.483459 845.151855,687.860962 
	C845.087036,687.662659 845.250977,687.355408 845.691772,686.997192 
z"/>
<path fill="#EC47A4" opacity="1.000000" stroke="none" 
	d="
M1015.857300,943.271484 
	C1025.417725,945.501953 1034.849609,947.940430 1044.215942,950.608398 
	C1062.060425,955.691406 1079.916138,960.746094 1097.666016,966.145081 
	C1104.597900,968.253540 1111.193237,971.444824 1118.062622,973.789551 
	C1122.607666,975.340881 1126.924805,977.143005 1131.944336,977.966370 
	C1142.417847,979.684326 1152.607666,983.572998 1162.666504,987.247681 
	C1172.231812,990.741943 1181.732788,994.604065 1190.808594,999.199768 
	C1202.903687,1005.324402 1214.584473,1012.272461 1226.388062,1018.964050 
	C1229.236938,1020.579102 1231.869385,1022.576111 1234.648682,1024.994995 
	C1232.079956,1026.726562 1229.541504,1028.127319 1226.825439,1028.918823 
	C1224.163330,1029.694580 1221.322388,1029.864502 1218.556152,1030.273560 
	C1216.379028,1030.595459 1214.193359,1031.141968 1212.015869,1031.121826 
	C1207.228882,1031.077515 1201.730469,1035.136841 1200.943604,1039.291138 
	C1200.644653,1040.869751 1199.605957,1042.308472 1198.904419,1043.810913 
	C1197.553223,1042.766235 1196.007202,1041.897095 1194.881836,1040.648804 
	C1185.673218,1030.435303 1176.556274,1020.139465 1167.361938,1009.913269 
	C1166.693848,1009.170288 1165.636230,1008.777710 1164.759766,1008.222168 
	C1164.409424,1008.477600 1164.059204,1008.732971 1163.708862,1008.988403 
	C1166.245728,1014.121826 1168.782593,1019.255249 1171.250732,1024.249512 
	C1168.532349,1032.042114 1162.547363,1035.502808 1154.317749,1035.231934 
	C1154.055054,1038.053955 1153.845215,1040.309570 1153.658081,1042.320801 
	C1148.703125,1044.209473 1143.858032,1044.328003 1140.409790,1049.338135 
	C1137.041626,1054.232056 1131.466675,1057.600220 1126.890991,1061.672363 
	C1123.973389,1064.268921 1120.761353,1066.637817 1118.292236,1069.615234 
	C1111.637085,1077.640503 1104.192505,1083.237671 1093.004639,1079.991943 
	C1092.176025,1079.399658 1091.347412,1078.807373 1090.144531,1077.869873 
	C1089.577759,1077.266968 1089.327271,1077.092896 1089.018799,1077.002319 
	C1072.940186,1065.080566 1056.987061,1052.984375 1040.738525,1041.298584 
	C1029.950317,1033.539795 1025.934692,1034.809570 1020.299927,1046.642822 
	C1020.088379,1047.087036 1019.970520,1047.584839 1019.865784,1048.069946 
	C1017.908325,1057.136597 1015.750366,1066.167114 1014.095520,1075.288940 
	C1013.246765,1079.967163 1006.228210,1088.451660 1001.602600,1090.123047 
	C991.983459,1093.598511 982.776733,1091.416504 973.499146,1088.806152 
	C968.105530,1087.288696 962.513489,1086.374512 957.254944,1084.502808 
	C949.294983,1081.669678 941.547913,1078.238525 933.195801,1074.713867 
	C930.061890,1072.382812 927.570435,1070.196777 924.801636,1068.450439 
	C910.208252,1059.245972 896.871826,1048.522339 884.996643,1035.995117 
	C885.437988,1035.222900 886.393677,1034.323120 886.238831,1033.698853 
	C885.066467,1028.971558 887.758606,1026.267212 892.212402,1024.814087 
	C900.177795,1022.215027 909.298401,1021.357910 914.497314,1013.230896 
	C915.013367,1012.424072 915.857788,1011.386963 916.662292,1011.276611 
	C921.777161,1010.574890 924.283142,1006.458008 927.408569,1003.227905 
	C928.580261,1002.016907 929.709778,1000.284241 929.881592,998.684570 
	C930.263184,995.130981 931.811218,993.543457 935.363770,994.004883 
	C938.280762,994.383728 940.000244,993.084900 942.019470,990.861633 
	C944.597534,988.023193 948.430725,986.366211 951.505981,983.926636 
	C954.947205,981.196716 954.838257,978.285583 951.699341,975.085632 
	C949.406372,972.748047 947.622375,969.911133 945.883179,967.117615 
	C957.485657,977.149719 968.549255,987.679932 980.233826,997.468994 
	C989.220398,1004.997620 998.962524,1011.628845 1008.451477,1018.545654 
	C1009.340759,1019.193787 1010.825378,1019.025085 1012.033630,1019.235596 
	C1012.017517,1018.010193 1012.209106,1016.739258 1011.952332,1015.566528 
	C1010.023315,1006.755615 1007.805542,998.001465 1006.147522,989.141724 
	C1005.695251,986.724731 1006.343811,983.789368 1007.358765,981.474060 
	C1009.576904,976.413818 1009.385254,971.755127 1007.444092,966.606262 
	C1005.964233,962.681030 1004.984253,958.211121 1005.298035,954.099182 
	C1005.487000,951.623108 1008.386963,949.180847 1010.433594,947.078613 
	C1011.870117,945.603210 1013.921997,944.726929 1015.857300,943.271484 
z"/>
<path fill="#FD3E91" opacity="1.000000" stroke="none" 
	d="
M884.696960,1035.845093 
	C896.871826,1048.522339 910.208252,1059.245972 924.801636,1068.450439 
	C927.570435,1070.196777 930.061890,1072.382812 932.836182,1074.660156 
	C923.737915,1072.333252 914.257874,1070.318237 905.281982,1066.957031 
	C889.679565,1061.114624 874.375366,1054.472534 858.976318,1048.092896 
	C855.180603,1046.520386 851.500916,1044.667969 847.394348,1042.884644 
	C841.976929,1039.536255 836.997986,1036.142334 831.877380,1032.977905 
	C814.541443,1022.264221 799.624695,1008.845398 785.958984,993.747620 
	C775.060974,981.707520 766.018372,968.629333 758.997314,954.050842 
	C752.779663,941.140442 748.225647,927.712341 745.907349,913.548035 
	C745.322876,909.976990 744.634705,906.423035 743.997070,902.422119 
	C744.166504,901.984741 744.333008,901.986755 744.499512,901.988342 
	C753.759766,902.077942 756.647888,904.569031 758.021851,913.442749 
	C758.373779,915.715881 758.596863,918.204163 759.705322,920.114075 
	C760.998169,922.341675 762.993835,925.362183 765.048096,925.678711 
	C768.534912,926.215942 772.438477,928.392578 775.954102,923.284973 
	C778.260376,919.934204 783.973511,918.681946 788.379700,917.099060 
	C792.042908,915.783020 795.996094,915.157166 799.873779,914.583862 
	C804.821960,913.852356 809.818909,913.431824 814.803467,912.970154 
	C818.758423,912.603699 820.000549,915.433411 820.642334,918.486572 
	C823.790161,933.461792 828.518372,947.895813 834.814758,961.849548 
	C844.469910,983.247070 855.885071,1003.524231 871.617004,1021.141479 
	C875.917114,1025.956909 880.139343,1030.841919 884.696960,1035.845093 
z"/>
<path fill="#E95BBB" opacity="1.000000" stroke="none" 
	d="
M1093.162720,1080.286621 
	C1104.192505,1083.237671 1111.637085,1077.640503 1118.292236,1069.615234 
	C1120.761353,1066.637817 1123.973389,1064.268921 1126.890991,1061.672363 
	C1131.466675,1057.600220 1137.041626,1054.232056 1140.409790,1049.338135 
	C1143.858032,1044.328003 1148.703125,1044.209473 1153.658081,1042.320801 
	C1153.845215,1040.309570 1154.055054,1038.053955 1154.317749,1035.231934 
	C1162.547363,1035.502808 1168.532349,1032.042114 1171.250732,1024.249512 
	C1168.782593,1019.255249 1166.245728,1014.121826 1163.708862,1008.988403 
	C1164.059204,1008.732971 1164.409424,1008.477600 1164.759766,1008.222168 
	C1165.636230,1008.777710 1166.693848,1009.170288 1167.361938,1009.913269 
	C1176.556274,1020.139465 1185.673218,1030.435303 1194.881836,1040.648804 
	C1196.007202,1041.897095 1197.553223,1042.766235 1198.904419,1043.810913 
	C1199.605957,1042.308472 1200.644653,1040.869751 1200.943604,1039.291138 
	C1201.730469,1035.136841 1207.228882,1031.077515 1212.015869,1031.121826 
	C1214.193359,1031.141968 1216.379028,1030.595459 1218.556152,1030.273560 
	C1221.322388,1029.864502 1224.163330,1029.694580 1226.825439,1028.918823 
	C1229.541504,1028.127319 1232.079956,1026.726562 1234.849243,1025.263306 
	C1251.270264,1035.852661 1264.320801,1050.088623 1276.587036,1065.150513 
	C1277.538452,1066.318848 1279.007812,1067.065308 1280.602539,1068.019775 
	C1281.135254,1069.197266 1281.301880,1070.362915 1281.722412,1071.774902 
	C1284.845947,1076.991455 1287.836792,1081.896362 1290.561279,1086.944946 
	C1297.511719,1099.824951 1302.421997,1113.489868 1305.687744,1127.736328 
	C1306.161621,1129.803589 1306.357666,1132.141602 1305.884033,1134.167603 
	C1305.264282,1136.818604 1303.849976,1139.283813 1302.777588,1141.828979 
	C1299.843750,1140.015991 1295.696655,1138.888672 1294.209961,1136.257812 
	C1290.204590,1129.169678 1282.463257,1125.900024 1274.957031,1129.559937 
	C1270.548218,1131.709595 1266.853027,1132.317383 1262.001953,1129.429199 
	C1258.758911,1127.498291 1253.702515,1128.457886 1249.460815,1128.494263 
	C1248.646729,1128.501099 1247.078735,1130.306885 1247.162354,1131.154297 
	C1247.857788,1138.204102 1242.886108,1139.276733 1237.641113,1140.312500 
	C1237.775513,1143.308350 1237.811035,1146.235229 1238.065063,1149.143188 
	C1238.302490,1151.858032 1238.771851,1154.552612 1238.985962,1156.128296 
	C1234.082764,1157.378052 1230.102539,1159.033691 1226.034424,1159.288330 
	C1218.822998,1159.739746 1212.118774,1163.853027 1204.206421,1160.615601 
	C1200.104736,1158.937134 1194.478638,1160.850342 1189.561157,1161.342407 
	C1185.655762,1161.733032 1181.708740,1162.139038 1177.914795,1163.080688 
	C1174.810791,1163.851196 1171.313477,1164.755981 1169.037109,1166.778809 
	C1164.521973,1170.791016 1160.012329,1171.928345 1154.253906,1168.942627 
	C1149.518311,1155.057983 1144.553345,1141.518066 1136.244263,1129.479980 
	C1134.649048,1127.168823 1132.964600,1124.919189 1131.150635,1122.355469 
	C1125.775879,1115.322388 1120.822144,1108.360352 1115.287476,1101.895752 
	C1110.915161,1096.788574 1105.870728,1092.249878 1101.041870,1087.543701 
	C1098.561890,1085.126831 1095.900269,1082.896118 1093.162720,1080.286621 
z"/>
<path fill="#CF90E2" opacity="1.000000" stroke="none" 
	d="
M1209.047852,1359.616699 
	C1202.568481,1363.918091 1196.073608,1367.831177 1189.260376,1371.886230 
	C1181.041748,1375.659302 1173.224609,1379.489624 1165.210327,1382.848999 
	C1160.225342,1384.938477 1154.941772,1386.315308 1149.452515,1387.659180 
	C1151.022827,1386.198853 1152.808472,1384.576416 1154.865845,1384.079102 
	C1161.243896,1382.537598 1163.214600,1380.409668 1163.306519,1373.845337 
	C1163.340454,1371.427734 1162.380127,1368.457397 1163.447266,1366.688477 
	C1167.570190,1359.853516 1161.813477,1358.025513 1158.149048,1355.136353 
	C1157.032104,1354.255737 1155.529297,1353.864258 1154.587036,1353.427002 
	C1154.265503,1351.504272 1154.448486,1349.713135 1153.687134,1348.529053 
	C1149.602905,1342.175903 1145.343506,1335.931763 1140.992676,1329.756958 
	C1140.170410,1328.589966 1138.695312,1327.858765 1137.465454,1327.007446 
	C1132.921631,1323.862915 1128.061035,1321.097168 1123.875244,1317.535645 
	C1119.326294,1313.665161 1117.364014,1306.923950 1109.682007,1306.622681 
	C1103.611938,1306.384521 1100.408447,1302.166260 1102.004272,1295.042480 
	C1102.004272,1295.042480 1102.062134,1294.546997 1102.110596,1294.301758 
	C1120.327515,1279.366211 1135.188721,1262.007812 1145.103027,1240.684204 
	C1146.354248,1237.992798 1147.331787,1235.174072 1148.703979,1232.174072 
	C1149.248291,1239.827637 1153.889404,1240.631958 1160.877319,1241.579468 
	C1169.259766,1242.715820 1177.389160,1246.714478 1183.770142,1253.153687 
	C1185.201904,1254.598633 1187.362183,1255.589600 1189.365967,1256.148315 
	C1194.998169,1257.718750 1198.355835,1262.137207 1202.590210,1265.589478 
	C1206.134888,1268.479736 1210.859009,1270.001221 1215.190186,1271.821045 
	C1217.902954,1272.960693 1220.855103,1273.530396 1224.397095,1274.558350 
	C1221.296997,1282.978149 1218.635376,1291.123291 1215.255127,1298.958252 
	C1213.809082,1302.309937 1213.570923,1303.843750 1217.315308,1305.360962 
	C1221.233154,1306.948486 1224.899902,1309.218750 1228.516602,1311.449585 
	C1229.672119,1312.162354 1230.317871,1313.701538 1231.754517,1315.599121 
	C1229.169189,1315.599121 1227.803711,1315.599121 1226.005981,1315.599121 
	C1226.839844,1317.406494 1227.332031,1319.019409 1228.249268,1320.336304 
	C1229.705078,1322.426392 1230.972412,1324.267944 1228.032593,1326.158325 
	C1227.559814,1326.462280 1227.008545,1327.366089 1227.142578,1327.784668 
	C1229.625854,1335.540894 1221.403687,1338.153198 1219.718384,1343.513062 
	C1217.920166,1349.231934 1213.647095,1351.824585 1210.109985,1355.550171 
	C1209.327515,1356.374390 1209.369873,1357.981812 1209.047852,1359.616699 
z"/>
<path fill="#D19EEA" opacity="1.000000" stroke="none" 
	d="
M1101.699219,1295.181641 
	C1100.408447,1302.166260 1103.611938,1306.384521 1109.682007,1306.622681 
	C1117.364014,1306.923950 1119.326294,1313.665161 1123.875244,1317.535645 
	C1128.061035,1321.097168 1132.921631,1323.862915 1137.465454,1327.007446 
	C1138.695312,1327.858765 1140.170410,1328.589966 1140.992676,1329.756958 
	C1145.343506,1335.931763 1149.602905,1342.175903 1153.687134,1348.529053 
	C1154.448486,1349.713135 1154.265503,1351.504272 1154.587036,1353.427002 
	C1155.529297,1353.864258 1157.032104,1354.255737 1158.149048,1355.136353 
	C1161.813477,1358.025513 1167.570190,1359.853516 1163.447266,1366.688477 
	C1162.380127,1368.457397 1163.340454,1371.427734 1163.306519,1373.845337 
	C1163.214600,1380.409668 1161.243896,1382.537598 1154.865845,1384.079102 
	C1152.808472,1384.576416 1151.022827,1386.198853 1149.063721,1387.661621 
	C1149.014648,1388.016968 1149.002441,1388.001831 1148.609619,1388.002686 
	C1146.803101,1388.675049 1145.389282,1389.346436 1143.975586,1390.017822 
	C1138.822632,1391.988770 1133.816284,1394.612305 1128.489380,1395.809204 
	C1112.121338,1399.486572 1095.638916,1402.658936 1079.180054,1405.923340 
	C1076.114258,1406.531494 1072.952393,1406.656006 1069.393311,1406.997070 
	C1069.391846,1406.355225 1069.691650,1405.495483 1070.293579,1405.120239 
	C1076.025146,1401.547119 1082.194580,1398.524292 1087.348999,1394.266602 
	C1088.973755,1392.924561 1088.296509,1388.292969 1087.943359,1385.251465 
	C1087.737915,1383.480835 1086.085571,1381.878174 1085.033081,1380.114136 
	C1087.084595,1379.590576 1088.789185,1379.155518 1090.493774,1378.720459 
	C1089.903564,1376.951538 1089.430664,1375.132568 1088.700562,1373.423340 
	C1086.666626,1368.662354 1084.600708,1363.910278 1082.313843,1359.269775 
	C1082.081421,1358.798340 1079.558228,1358.683716 1079.296143,1359.121338 
	C1077.180542,1362.652222 1075.606567,1360.829834 1074.172852,1358.720703 
	C1070.373779,1353.132080 1066.507812,1347.578003 1062.982056,1341.818115 
	C1060.221802,1337.308960 1057.105347,1333.702881 1051.700439,1332.144409 
	C1049.692383,1331.565552 1048.238281,1329.066162 1046.264648,1327.223633 
	C1051.666504,1324.351196 1057.587891,1322.125732 1062.953247,1318.958496 
	C1075.905151,1311.313477 1088.597290,1303.228394 1101.699219,1295.181641 
z"/>
<path fill="#FE76B2" opacity="1.000000" stroke="none" 
	d="
M971.268921,745.979126 
	C960.298889,754.680786 949.600098,763.161743 938.941956,771.693420 
	C937.402100,772.925964 936.057190,774.401917 934.316162,775.904541 
	C934.378418,774.620850 934.454346,773.027283 935.167969,771.806274 
	C937.548584,767.732910 939.977783,763.663147 942.736267,759.843140 
	C944.947327,756.781067 944.082703,753.792175 941.560181,752.601929 
	C937.686340,750.774292 933.216553,750.176208 928.969849,749.183838 
	C926.042358,748.499695 922.394897,748.921570 920.235718,747.297913 
	C913.982483,742.595703 908.773071,736.428101 902.301514,732.114380 
	C895.109802,727.320496 887.218262,723.347290 879.197937,720.081543 
	C868.200317,715.603699 867.805786,715.450317 873.911682,705.250061 
	C874.501648,704.264465 875.294800,703.401062 875.987915,702.476624 
	C880.144775,696.932800 879.660095,696.200195 874.039612,692.280151 
	C871.671631,690.628723 870.172546,687.218506 869.161072,684.301697 
	C868.389343,682.076294 869.007812,679.368774 869.018677,676.412720 
	C877.606628,672.027893 885.914551,667.285339 894.820129,664.365234 
	C910.511475,659.220093 926.435242,654.618530 942.514404,650.874878 
	C954.682068,648.041809 967.238831,646.870117 979.631958,645.022522 
	C982.729919,644.560669 985.902588,643.886719 988.971191,644.143555 
	C992.019348,644.398621 994.979736,645.703308 997.978577,646.547668 
	C997.967712,647.194153 997.956848,647.840637 997.945984,648.487122 
	C996.612671,648.998413 995.122437,649.286560 993.989624,650.083069 
	C992.827698,650.900085 992.015442,652.214355 991.050110,653.310974 
	C992.222473,653.971619 993.334595,654.792236 994.579102,655.261414 
	C997.689453,656.434021 1001.026367,657.115234 1003.971863,658.592590 
	C1010.344116,661.788696 1013.043762,668.182617 1016.522461,673.879456 
	C1020.528442,680.439697 1024.756836,686.865723 1028.690918,693.467896 
	C1031.198486,697.676147 1033.603760,701.986694 1035.553589,706.469482 
	C1036.598511,708.871887 1036.583008,711.735413 1036.801514,715.001282 
	C1034.729736,716.408508 1032.902466,717.205322 1031.075317,718.002136 
	C1021.971985,721.399475 1012.584106,724.196838 1003.836975,728.345276 
	C992.802368,733.578735 982.290527,739.914490 971.268921,745.979126 
z"/>
<path fill="#CF90E2" opacity="1.000000" stroke="none" 
	d="
M1034.307373,1264.981201 
	C1036.395264,1272.396484 1035.533325,1278.983398 1030.427734,1285.261841 
	C1023.249390,1294.089111 1016.895813,1303.584106 1010.100891,1312.727661 
	C1006.362610,1317.757935 1003.044739,1323.360229 998.373535,1327.337769 
	C995.686768,1329.625610 990.704224,1329.480957 986.700806,1329.863892 
	C984.137878,1330.109009 981.476013,1329.319214 978.436035,1328.967407 
	C981.089478,1324.714966 984.117615,1320.452759 987.251892,1316.270386 
	C992.260925,1309.586426 997.265381,1302.896362 1002.431824,1296.334839 
	C1004.159424,1294.140747 1006.485168,1292.428223 1008.345520,1290.325562 
	C1011.585083,1286.664062 1015.055420,1283.120239 1017.723206,1279.062988 
	C1020.453430,1274.910889 1021.300049,1270.239746 1016.161194,1266.047485 
	C1016.542603,1265.692261 1016.923950,1265.337158 1017.305359,1264.981934 
	C1022.825317,1264.981934 1028.345337,1264.981934 1034.307373,1264.981201 
z"/>
<path fill="#E95BBB" opacity="1.000000" stroke="none" 
	d="
M1089.117676,1077.213013 
	C1089.327271,1077.092896 1089.577759,1077.266968 1089.868652,1077.733643 
	C1089.651978,1077.863770 1089.401733,1077.690796 1089.117676,1077.213013 
z"/>
<path fill="#EC47A4" opacity="1.000000" stroke="none" 
	d="
M1031.017822,718.367676 
	C1032.902466,717.205322 1034.729736,716.408508 1036.771484,715.366821 
	C1048.246826,712.607300 1059.504395,710.078308 1070.772339,707.596130 
	C1072.213013,707.278870 1073.707275,707.206238 1075.606201,707.035156 
	C1074.485352,711.737488 1066.958130,717.630798 1062.489502,718.028320 
	C1056.398193,718.570251 1050.281128,719.129211 1044.283569,720.257446 
	C1042.134033,720.661865 1040.056396,722.485535 1038.360229,724.097229 
	C1026.407104,735.454651 1018.612122,750.036743 1008.973511,763.152344 
	C1004.273743,769.547363 1002.862183,778.358826 999.925049,786.476074 
	C985.619690,789.843811 984.027893,787.775757 987.768921,773.809998 
	C990.564453,763.374207 996.432739,755.137390 1003.233765,747.171143 
	C1009.104065,740.295044 1014.503479,733.018433 1020.290833,726.068604 
	C1021.215210,724.958557 1023.023987,724.427429 1024.529053,723.991760 
	C1027.472290,723.139893 1030.343018,722.363037 1031.017822,718.367676 
z"/>
<path fill="#FE76B2" opacity="1.000000" stroke="none" 
	d="
M1093.436035,720.026733 
	C1094.082520,713.840149 1099.639648,712.279968 1103.974365,710.246460 
	C1109.387817,707.706970 1115.492798,706.647095 1121.283813,704.897522 
	C1121.846558,704.727417 1122.300903,704.199158 1122.885864,703.468384 
	C1129.997314,703.407104 1137.028687,703.714600 1144.517822,704.030273 
	C1143.914062,705.085938 1143.036743,706.566772 1141.760620,707.108704 
	C1134.781006,710.073059 1129.241089,714.534851 1126.238159,721.623108 
	C1125.073120,724.372864 1123.328369,725.488586 1120.486572,724.973816 
	C1111.600830,723.364380 1102.719971,721.726929 1093.436035,720.026733 
z"/>
<path fill="#CF90E2" opacity="1.000000" stroke="none" 
	d="
M1144.349609,1390.020264 
	C1145.389282,1389.346436 1146.803101,1388.675049 1148.614502,1388.008789 
	C1147.582520,1388.683716 1146.152954,1389.353271 1144.349609,1390.020264 
z"/>
</svg>